<svg width="374" height="365" viewBox="0 0 374 365" fill="none" xmlns="http://www.w3.org/2000/svg">
<path d="M54.7504 335.886C127.737 374.019 246.07 374.019 319.056 335.886C392.042 297.752 392.051 235.938 319.056 197.804C246.061 159.67 127.737 159.679 54.7418 197.804C-18.253 235.929 -18.2444 297.743 54.7504 335.886Z" fill="#F5F5F5"/>
<path d="M146.972 302.769C166.642 312.144 198.526 312.144 218.153 302.769C237.78 293.394 237.823 278.203 218.153 268.828C198.483 259.453 166.608 259.453 146.972 268.828C127.337 278.203 127.267 293.403 146.972 302.769Z" fill="#EBEBEB"/>
<path d="M317.25 279.566L246.938 320.148C245.756 320.746 244.36 320.746 243.179 320.148L155.288 269.384C154.823 269.226 154.511 268.79 154.511 268.299C154.511 267.808 154.823 267.371 155.288 267.214L225.601 226.632C226.782 226.033 228.178 226.033 229.36 226.632L317.276 277.396C317.739 277.559 318.047 277.999 318.041 278.49C318.035 278.981 317.717 279.414 317.25 279.566Z" fill="#EBEBEB"/>
<path d="M336.817 56.4847V75.1219C336.817 75.1219 329.161 78.7069 315.115 78.7069C301.07 78.7069 293.414 75.1132 293.414 75.1132V56.884L308.067 15.417C307.867 16.7191 308.631 18.0212 310.35 19.0455C312.903 20.6215 316.075 20.8201 318.805 19.575C319.182 19.4265 319.548 19.2495 319.898 19.0455C321.721 17.9951 322.503 16.5541 322.147 15.1826L336.817 56.4847Z" fill="#F5F5F5"/>
<path opacity="0.5" d="M336.817 56.4847V75.1219C336.817 75.1219 329.161 78.7069 315.115 78.7069C301.07 78.7069 293.414 75.1132 293.414 75.1132V56.884L308.067 15.417C307.867 16.7191 308.631 18.0212 310.35 19.0455C312.903 20.6215 316.075 20.8201 318.805 19.575C319.182 19.4265 319.548 19.2495 319.898 19.0455C321.721 17.9951 322.503 16.5541 322.147 15.1826L336.817 56.4847Z" fill="white"/>
<path d="M335.132 187.127C333.874 188.785 332.28 190.157 330.453 191.155C321.964 196.059 308.205 196.059 299.724 191.155C297.895 190.158 296.297 188.785 295.037 187.127C294.057 185.825 293.478 184.265 293.37 182.639V192.318C293.526 195.408 295.636 198.473 299.724 200.834C308.205 205.729 321.964 205.729 330.453 200.834C334.69 198.386 336.816 195.174 336.816 191.962V182.292C336.784 184.042 336.194 185.736 335.132 187.127Z" fill="#F5F5F5"/>
<path d="M335.132 177.448C333.874 179.106 332.28 180.478 330.453 181.476C329.95 181.762 329.438 182.031 328.908 182.283C320.896 186.103 309.273 186.103 301.269 182.283C300.74 182.031 300.219 181.762 299.724 181.476C297.895 180.479 296.297 179.107 295.037 177.448C294.058 176.149 293.478 174.592 293.37 172.969V182.639C293.478 184.265 294.057 185.824 295.037 187.127C296.297 188.785 297.895 190.158 299.724 191.155C308.205 196.059 321.964 196.059 330.453 191.155C332.28 190.157 333.874 188.784 335.132 187.127C336.194 185.736 336.784 184.042 336.816 182.292V172.613C336.785 174.363 336.195 176.057 335.132 177.448Z" fill="#EBEBEB"/>
<path d="M335.132 167.769C333.873 169.428 332.279 170.803 330.453 171.806C329.95 172.092 329.438 172.353 328.908 172.613C320.896 176.433 309.273 176.433 301.269 172.613C300.74 172.353 300.219 172.092 299.724 171.806C297.897 170.803 296.3 169.428 295.037 167.769C294.058 166.47 293.478 164.914 293.37 163.29V172.969C293.478 174.592 294.058 176.149 295.037 177.448C296.297 179.107 297.895 180.479 299.724 181.476C300.219 181.762 300.74 182.032 301.269 182.283C309.273 186.103 320.896 186.103 328.908 182.283C329.438 182.032 329.95 181.762 330.453 181.476C332.28 180.478 333.874 179.106 335.132 177.448C336.195 176.057 336.785 174.363 336.816 172.613V162.934C336.786 164.685 336.196 166.379 335.132 167.769Z" fill="#F5F5F5"/>
<path d="M293.37 56.8491V163.29C293.478 164.913 294.058 166.47 295.037 167.769C296.3 169.428 297.897 170.803 299.724 171.806C300.219 172.092 300.74 172.353 301.269 172.613C303.368 173.591 305.577 174.311 307.849 174.757L303.917 62.5783L293.37 56.8491Z" fill="#F5F5F5"/>
<path d="M326.261 62.5784L322.32 174.757C324.592 174.311 326.802 173.591 328.9 172.613C329.43 172.353 329.942 172.092 330.445 171.806C332.271 170.803 333.865 169.428 335.124 167.769C336.187 166.379 336.778 164.684 336.808 162.934V56.4846L326.261 62.5784Z" fill="#F5F5F5"/>
<path d="M293.37 56.8491V163.29C293.478 164.913 294.058 166.47 295.037 167.769C296.3 169.428 297.897 170.803 299.724 171.806C300.219 172.092 300.74 172.353 301.269 172.613C303.368 173.591 305.577 174.311 307.849 174.757L303.917 62.5783L293.37 56.8491Z" fill="#E0E0E0"/>
<path d="M326.261 62.5784L322.32 174.757C324.592 174.311 326.802 173.591 328.9 172.613C329.43 172.353 329.942 172.092 330.445 171.806C332.271 170.803 333.865 169.428 335.124 167.769C336.187 166.379 336.778 164.684 336.808 162.934V56.4846L326.261 62.5784Z" fill="#E0E0E0"/>
<path d="M303.917 62.5784V173.689C305.203 174.134 306.516 174.493 307.849 174.766C310.232 175.247 312.658 175.489 315.089 175.486C317.52 175.484 319.945 175.243 322.328 174.766C323.661 174.493 324.975 174.134 326.261 173.689V62.5784L303.917 62.5784Z" fill="#EBEBEB"/>
<path d="M319.863 19.0019C319.513 19.206 319.147 19.383 318.769 19.5315C316.039 20.7765 312.868 20.5779 310.315 19.0019C308.578 18.0124 307.832 16.6756 308.032 15.3735L313.032 1.37174C313.368 0.533676 314.186 -0.0111859 315.089 0.000212096C315.994 -0.0123294 316.815 0.532312 317.155 1.37174L322.103 15.1217C322.441 16.4933 321.686 17.9516 319.863 19.0019Z" fill="#E0E0E0"/>
<path d="M330.454 200.833C323.162 205.044 311.981 205.625 303.596 202.57C303.127 202.408 302.667 202.225 302.216 202.023L301.591 201.762C300.94 201.467 300.315 201.146 299.725 200.807C295.636 198.446 293.527 195.382 293.37 192.292V218.663C293.214 221.997 295.324 225.356 299.725 227.891C300.245 228.195 300.792 228.481 301.356 228.759C301.565 228.863 301.791 228.941 301.999 229.037C302.363 229.193 302.719 229.358 303.093 229.497C303.466 229.636 303.674 229.705 303.961 229.8C304.247 229.896 304.577 230.026 304.898 230.122C305.219 230.217 305.61 230.321 305.966 230.417C306.322 230.512 306.513 230.573 306.791 230.634C307.068 230.695 307.615 230.816 308.032 230.894C308.266 230.894 308.501 230.998 308.735 231.033C309.204 231.12 309.681 231.181 310.159 231.25L310.723 231.328C311.252 231.389 311.782 231.432 312.311 231.467H312.728C313.31 231.511 313.891 231.528 314.464 231.537H314.742C315.367 231.537 315.992 231.537 316.617 231.537H316.756C317.416 231.537 318.075 231.458 318.735 231.398C322.601 231.069 326.367 229.99 329.82 228.221C330.011 228.116 330.211 228.03 330.402 227.917C334.638 225.469 336.764 222.257 336.764 219.045V191.962C336.817 195.174 334.69 198.386 330.454 200.833Z" fill="#E0E0E0"/>
<path d="M68.3966 216.215C65.8879 215.582 52.4938 207.96 51.131 207.031C49.7681 206.103 47.0771 204.184 47.0771 200.877C47.0771 197.952 47.381 170.365 49.7768 157.04C51.3677 148.662 56.3459 141.313 63.5355 136.728C71.8688 131.563 80.2455 127.821 87.3028 130.755C94.3601 133.689 100.801 139.08 103.579 145.59C106.357 152.101 108.258 165.139 108.457 170.182C108.657 175.226 108.457 192.518 108.457 194.054C108.457 195.59 108.18 197.587 99.907 202.735C91.6344 207.882 80.2108 214.019 76.6778 215.608C74.05 216.676 71.1522 216.889 68.3966 216.215Z" fill="#37474F"/>
<path d="M66.331 140.313C65.5671 140.747 63.3623 139.662 63.0324 139.115C62.7026 138.568 62.6157 133.837 64.2651 131.224C65.9144 128.611 76.2008 123.794 78.7442 124.15C80.6695 124.463 82.3807 125.556 83.4751 127.17C83.7876 127.839 84.1348 132.24 83.4751 133.143C82.8154 134.045 80.463 132.656 80.2546 132.275C80.0463 131.893 81.0272 128.672 79.3866 128.004C77.8762 127.396 70.706 130.443 67.7894 132.891C66.522 133.959 66.5828 136.606 66.6435 137.917C66.7043 139.228 66.713 140.087 66.331 140.313Z" fill="#455A64"/>
<path d="M64.2642 171.372C65.7399 157.04 68.3962 148.672 82.4153 142.431C96.4344 136.189 101.877 141.502 103.865 146.285C106.469 152.986 108.266 165.313 108.457 170.183C108.657 175.226 108.457 192.518 108.457 194.054C108.457 195.59 108.179 197.587 99.9066 202.735C91.634 207.882 80.2104 214.019 76.6774 215.608C74.0523 216.685 71.1545 216.906 68.3962 216.242C67.8422 216.073 67.3023 215.861 66.7816 215.608C62.4153 210 62.9101 184.462 64.2642 171.372Z" fill="#455A64"/>
<path d="M96.9465 136.832C93.2833 134.688 87.2764 133.273 78.4569 137.205C62.693 144.228 58.6913 153.021 57.1028 168.455C56.8163 171.285 56.391 174.653 56.2347 178.273L54.9326 177.483C55.1149 173.577 55.4969 170.235 55.8007 167.214C57.5368 151.667 62.1982 143.073 77.259 136.363C85.601 132.648 91.0785 133.134 94.7069 134.966C95.4861 135.547 96.2337 136.17 96.9465 136.832Z" fill="#263238"/>
<path d="M97.4934 137.231C93.8389 135.087 87.8232 133.672 79.0125 137.604C63.2399 144.627 59.2382 153.42 57.6496 168.854C57.3632 171.684 56.9378 175.052 56.7816 178.672L55.4795 177.882C55.6618 173.976 56.0437 170.634 56.3475 167.613C58.0837 152.066 62.7451 143.464 77.8059 136.762C86.1479 133.047 91.7729 133.663 95.4014 135.486C96.1309 136.028 96.8294 136.611 97.4934 137.231Z" fill="#455A64"/>
<path d="M92.3899 150.86L87.6243 148.134C87.1349 147.859 86.5156 148.03 86.2354 148.516L81.3483 157.014C81.0648 157.501 81.2277 158.125 81.7129 158.412L86.4177 161.155C86.9046 161.438 87.529 161.275 87.8153 160.79L92.7632 152.24C92.9003 152.008 92.9379 151.731 92.8676 151.471C92.7974 151.211 92.6251 150.991 92.3899 150.86Z" fill="#263238"/>
<path d="M87.2763 160.182L91.9725 152.083C92.0409 151.966 92.0592 151.827 92.0232 151.696C91.9873 151.565 91.9002 151.455 91.7815 151.389L87.4413 148.924C87.1966 148.786 86.8869 148.872 86.7468 149.115L82.1027 157.179C81.9654 157.424 82.0505 157.733 82.2937 157.873L86.5559 160.365C86.6746 160.44 86.819 160.463 86.9553 160.428C87.0915 160.394 87.2076 160.305 87.2763 160.182Z" fill="#455A64"/>
<path d="M88.2834 156.311C88.5371 156.158 88.7042 155.894 88.7348 155.599V151.719C88.7348 151.467 88.5352 151.389 88.2834 151.528C88.0298 151.682 87.8627 151.945 87.832 152.24V156.12C87.832 156.372 88.0317 156.45 88.2834 156.311Z" fill="#37474F"/>
<path d="M85.7668 157.769C86.0199 157.611 86.1863 157.346 86.2182 157.049V153.177C86.2182 152.926 86.0099 152.839 85.7668 152.986C85.5112 153.138 85.3434 153.402 85.3154 153.698V157.578C85.3415 157.821 85.5151 157.908 85.7668 157.769Z" fill="#37474F"/>
<path d="M70.7575 183.49C70.7575 183.49 73.1186 185.434 74.82 192.761C76.5214 200.087 77.5457 209.314 75.6881 210.426C73.8304 211.537 71.1481 209.21 70.4797 208.412C69.1082 206.771 69.4467 189.358 70.7575 183.49Z" fill="#263238"/>
<path d="M70.7578 183.49C70.7578 183.49 73.1189 185.434 74.8203 192.761C76.5217 200.087 77.546 209.315 75.6884 210.426L104.334 193.533C106.209 192.422 106.669 182.726 104.977 175.4C103.857 170.582 101.799 168.29 100.532 167.283C99.9373 166.824 99.1228 166.772 98.4748 167.153L70.7578 183.49Z" fill="#37474F"/>
<path d="M99.9419 168.403C101.313 169.08 103.64 170.946 104.69 175.903C105.052 177.279 104.597 178.742 103.518 179.67C102.563 180.347 82.06 192.005 79.343 193.629C76.9992 195.026 75.784 193.169 75.2718 192.005C74.4038 189.939 73.6572 188.333 73.0149 187.101C72.5244 185.757 71.7586 184.53 70.7666 183.498L98.0843 168.481C98.652 168.148 99.3483 168.118 99.9419 168.403Z" fill="#263238"/>
<path d="M57.121 179.479C57.5177 180.972 57.7763 182.497 57.8936 184.037C57.8936 184.349 57.4682 184.514 57.3467 184.514C56.354 184.314 55.4352 183.846 54.6904 183.16C54.8296 181.848 55.0675 180.548 55.4022 179.271L57.121 179.479Z" fill="#263238"/>
<path d="M58.0064 178.255C58.0064 177.34 57.2641 176.597 56.3484 176.597C55.4327 176.597 54.6904 177.34 54.6904 178.255C54.6904 179.171 55.4327 179.913 56.3484 179.913C56.7881 179.913 57.2099 179.739 57.5208 179.428C57.8317 179.117 58.0064 178.695 58.0064 178.255Z" fill="#263238"/>
<path d="M78.7441 127.926C80.5584 127.752 82.2684 127.926 82.7025 129.74C83.1365 131.554 82.9803 133.212 82.7025 133.438C81.7833 133.321 80.9255 132.914 80.2546 132.275C80.0462 131.884 81.0271 128.672 79.3865 128.004C79.1853 127.937 78.9729 127.91 78.7615 127.926H78.7441Z" fill="#263238"/>
<path d="M98.6484 167.058C99.2184 166.721 99.9187 166.692 100.515 166.979C101.886 167.656 104.213 169.523 105.263 174.479C105.622 175.856 105.168 177.317 104.091 178.247C103.136 178.924 82.6415 190.582 79.9245 192.205C77.5807 193.603 76.3568 191.745 75.8446 190.582C73.0061 184.644 70.7578 183.49 70.7578 183.49L98.6484 167.058Z" fill="#37474F"/>
<path d="M93.7347 268.047L70.7486 254.783C69.5314 253.987 68.7647 252.659 68.6826 251.207V251.467C68.7619 250.014 69.5293 248.686 70.7486 247.891L116.973 221.207C118.268 220.547 119.801 220.547 121.096 221.207L144.082 234.48C145.303 235.269 146.071 236.595 146.148 238.047V237.787C146.071 239.239 145.307 240.567 144.091 241.363L97.8666 268.047C96.5685 268.708 95.0329 268.708 93.7347 268.047Z" fill="#BA68C8"/>
<path opacity="0.7" d="M93.7347 268.047L70.7486 254.783C69.5314 253.987 68.7647 252.659 68.6826 251.207V251.467C68.7619 250.014 69.5293 248.686 70.7486 247.891L116.973 221.207C118.268 220.547 119.801 220.547 121.096 221.207L144.082 234.48C145.303 235.269 146.071 236.595 146.148 238.047V237.787C146.071 239.239 145.307 240.567 144.091 241.363L97.8666 268.047C96.5685 268.708 95.0329 268.708 93.7347 268.047Z" fill="black"/>
<path d="M95.7578 233.429L70.7144 247.891C69.4951 248.686 68.7277 250.014 68.6484 251.467V251.207C68.7305 252.659 69.4972 253.987 70.7144 254.783L93.7005 268.047C94.3358 268.385 95.0469 268.556 95.7665 268.542L95.7578 233.429Z" fill="#BA68C8"/>
<path opacity="0.7" d="M95.7578 233.429L70.7144 247.891C69.4951 248.686 68.7277 250.014 68.6484 251.467V251.207C68.7305 252.659 69.4972 253.987 70.7144 254.783L93.7005 268.047C94.3358 268.385 95.0469 268.556 95.7665 268.542L95.7578 233.429Z" fill="black"/>
<path d="M70.7402 250.278L93.7177 263.551C95.0182 264.201 96.5491 264.201 97.8496 263.551L144.074 236.858C145.219 236.198 145.219 235.122 144.074 234.48L121.087 221.207C119.792 220.547 118.259 220.547 116.964 221.207L70.7402 247.891C69.5944 248.551 69.5944 249.618 70.7402 250.278Z" fill="#BA68C8"/>
<path opacity="0.5" d="M70.7402 250.278L93.7177 263.551C95.0182 264.201 96.5491 264.201 97.8496 263.551L144.074 236.858C145.219 236.198 145.219 235.122 144.074 234.48L121.087 221.207C119.792 220.547 118.259 220.547 116.964 221.207L70.7402 247.891C69.5944 248.551 69.5944 249.618 70.7402 250.278Z" fill="black"/>
<path d="M70.7402 245.912V248.117L94.5944 261.893C95.3335 262.317 96.2425 262.317 96.9816 261.893L144.074 234.696V232.422L95.7836 255.86L70.7402 245.912Z" fill="#BA68C8"/>
<path d="M93.7259 259.184L70.7398 245.912C69.5184 245.119 68.7504 243.789 68.6738 242.335V238.091C68.7504 236.637 69.5184 235.307 70.7398 234.514L116.964 207.822C118.259 207.161 119.792 207.161 121.087 207.822L144.073 221.094C145.295 221.887 146.063 223.216 146.139 224.67V228.924C146.051 230.347 145.282 231.64 144.073 232.396L97.8492 259.158C96.5582 259.827 95.0252 259.836 93.7259 259.184Z" fill="#BA68C8"/>
<path opacity="0.6" d="M93.7259 259.184L70.7398 245.912C69.5184 245.119 68.7504 243.789 68.6738 242.335V238.091C68.7504 236.637 69.5184 235.307 70.7398 234.514L116.964 207.822C118.259 207.161 119.792 207.161 121.087 207.822L144.073 221.094C145.295 221.887 146.063 223.216 146.139 224.67V228.924C146.051 230.347 145.282 231.64 144.073 232.396L97.8492 259.158C96.5582 259.827 95.0252 259.836 93.7259 259.184Z" fill="black"/>
<path d="M95.7578 220.052L70.7144 234.514C69.493 235.307 68.725 236.637 68.6484 238.091V242.335C68.725 243.79 69.493 245.119 70.7144 245.912L93.7005 259.184C94.3323 259.524 95.0409 259.694 95.7578 259.679V220.052Z" fill="#BA68C8"/>
<path opacity="0.7" d="M95.7578 220.052L70.7144 234.514C69.493 235.307 68.725 236.637 68.6484 238.091V242.335C68.725 243.79 69.493 245.119 70.7144 245.912L93.7005 259.184C94.3323 259.524 95.0409 259.694 95.7578 259.679V220.052Z" fill="black"/>
<path d="M70.7402 236.893L93.7177 250.165C95.0159 250.826 96.5514 250.826 97.8496 250.165L144.074 223.481C145.219 222.822 145.219 221.745 144.074 221.094L121.087 207.822C119.792 207.161 118.259 207.161 116.964 207.822L70.7402 234.514C69.5944 235.174 69.5944 236.242 70.7402 236.893Z" fill="#BA68C8"/>
<path opacity="0.5" d="M70.7402 236.893L93.7177 250.165C95.0159 250.826 96.5514 250.826 97.8496 250.165L144.074 223.481C145.219 222.822 145.219 221.745 144.074 221.094L121.087 207.822C119.792 207.161 118.259 207.161 116.964 207.822L70.7402 234.514C69.5944 235.174 69.5944 236.242 70.7402 236.893Z" fill="black"/>
<path d="M102.797 226.346C100.254 227.821 100.254 230.191 102.797 231.65C105.697 233.108 109.116 233.108 112.016 231.65C114.559 230.191 114.559 227.821 112.016 226.346C109.118 224.879 105.695 224.879 102.797 226.346Z" fill="#BA68C8"/>
<path d="M140.332 227.9C139.853 228.213 139.553 228.735 139.524 229.306C139.524 229.827 139.889 230.044 140.332 229.792C140.81 229.479 141.11 228.957 141.139 228.386C141.139 227.865 140.774 227.648 140.332 227.9Z" fill="#BA68C8"/>
<path d="M140.332 231.016C139.853 231.329 139.553 231.851 139.524 232.422C139.524 232.943 139.889 233.16 140.332 232.908C140.817 232.602 141.119 232.075 141.139 231.502C141.139 230.981 140.774 230.764 140.332 231.016Z" fill="#BA68C8"/>
<path d="M84.0994 285.591C83.9932 285.591 83.8887 285.564 83.7956 285.513L61.5213 272.57C60.3476 271.89 59.625 270.636 59.625 269.28C59.625 267.924 60.3476 266.67 61.5213 265.99L77.8494 256.563C78.1371 256.417 78.4887 256.521 78.6503 256.801C78.8119 257.08 78.727 257.437 78.457 257.613L62.1376 267.014C61.347 267.483 60.8623 268.335 60.8623 269.254C60.8623 270.173 61.347 271.024 62.1376 271.493L84.4119 284.419C84.5633 284.498 84.6736 284.638 84.7151 284.804C84.7566 284.97 84.7252 285.146 84.6289 285.287C84.5225 285.479 84.3186 285.596 84.0994 285.591Z" fill="#BA68C8"/>
<path d="M111.999 273.091L107.172 253.716C107.103 253.448 107.013 253.187 106.903 252.934L108.309 252.735L105.245 250.999C103.935 250.287 102.339 250.357 101.096 251.181L81.0004 262.813C78.2022 264.645 76.445 267.702 76.2695 271.042V294.341C76.2695 296.198 76.7209 297.474 77.6497 297.917L80.5317 299.584L79.8372 297.743L79.9935 297.683C83.3008 296.103 84.4987 293.221 85.4883 290.365L89.3164 279.297C90.306 276.441 92.7886 273.169 94.8199 271.979C96.8511 270.79 99.7504 271.979 101.243 274.584L103.171 277.952C103.759 279.021 104.646 279.895 105.723 280.469L108.657 282.205L107.91 281.042C108.52 281.043 109.12 280.882 109.646 280.573C111.651 279.375 112.728 276.042 111.999 273.091Z" fill="#BA68C8"/>
<path opacity="0.7" d="M111.999 273.091L107.172 253.716C107.103 253.448 107.013 253.187 106.903 252.934L108.309 252.735L105.245 250.999C103.935 250.287 102.339 250.357 101.096 251.181L81.0004 262.813C78.2022 264.645 76.445 267.702 76.2695 271.042V294.341C76.2695 296.198 76.7209 297.474 77.6497 297.917L80.5317 299.584L79.8372 297.743L79.9935 297.683C83.3008 296.103 84.4987 293.221 85.4883 290.365L89.3164 279.297C90.306 276.441 92.7886 273.169 94.8199 271.979C96.8511 270.79 99.7504 271.979 101.243 274.584L103.171 277.952C103.759 279.021 104.646 279.895 105.723 280.469L108.657 282.205L107.91 281.042C108.52 281.043 109.12 280.882 109.646 280.573C111.651 279.375 112.728 276.042 111.999 273.091Z" fill="black"/>
<path d="M106.903 252.934L108.309 252.735L105.245 250.999C103.935 250.287 102.338 250.357 101.095 251.181L81 262.813C79.8775 263.512 78.9184 264.445 78.1875 265.547L82.9705 268.464L107.432 254.644L107.198 253.716C107.121 253.448 107.022 253.186 106.903 252.934Z" fill="#BA68C8"/>
<path opacity="0.5" d="M106.903 252.934L108.309 252.735L105.245 250.999C103.935 250.287 102.338 250.357 101.095 251.181L81 262.813C79.8775 263.512 78.9184 264.445 78.1875 265.547L82.9705 268.464L107.432 254.644L107.198 253.716C107.121 253.448 107.022 253.186 106.903 252.934Z" fill="black"/>
<path d="M112.71 282.379C110.653 283.568 107.762 282.379 106.261 279.775L104.342 276.407C102.84 273.802 100.002 272.613 97.9099 273.802C95.8179 274.992 93.3961 278.256 92.4065 281.12L88.587 292.179C87.5974 295.035 86.3908 297.917 83.0836 299.497C80.5836 300.695 79.377 299.184 79.377 296.164V272.848C79.5585 269.509 81.3184 266.457 84.1165 264.627L104.247 252.952C105.349 252.18 106.773 252.032 108.01 252.563C109.247 253.093 110.122 254.225 110.323 255.556L115.15 274.94C115.861 277.839 114.776 281.19 112.71 282.379Z" fill="#BA68C8"/>
<path opacity="0.6" d="M112.71 282.379C110.653 283.568 107.762 282.379 106.261 279.775L104.342 276.407C102.84 273.802 100.002 272.613 97.9099 273.802C95.8179 274.992 93.3961 278.256 92.4065 281.12L88.587 292.179C87.5974 295.035 86.3908 297.917 83.0836 299.497C80.5836 300.695 79.377 299.184 79.377 296.164V272.848C79.5585 269.509 81.3184 266.457 84.1165 264.627L104.247 252.952C105.349 252.18 106.773 252.032 108.01 252.563C109.247 253.093 110.122 254.225 110.323 255.556L115.15 274.94C115.861 277.839 114.776 281.19 112.71 282.379Z" fill="black"/>
<path d="M104.907 259.662L105.41 262.518L107.641 261.094L108.136 263.95L105.914 265.382L106.417 268.238L104.195 269.662L103.692 266.806L101.469 268.238L100.966 265.374L103.188 263.95L102.685 261.094L104.907 259.662Z" fill="#263238"/>
<path d="M105.549 260L106.053 262.856L108.275 261.433L108.779 264.288L106.556 265.721L107.06 268.577L104.838 270L104.334 267.144L102.112 268.568L101.608 265.712L103.831 264.288L103.327 261.433L105.549 260Z" fill="#BA68C8"/>
<path d="M88.066 269.775C88.187 270.594 87.8548 271.414 87.198 271.919C86.5817 272.309 85.974 271.988 85.8351 271.198C85.7084 270.378 86.0417 269.555 86.7032 269.054C87.3108 268.664 87.9445 268.985 88.066 269.775Z" fill="#263238"/>
<path d="M89.0736 275.486C89.2003 276.306 88.867 277.13 88.2055 277.63C87.5892 278.021 86.9816 277.7 86.8427 276.919C86.714 276.098 87.0477 275.274 87.7107 274.775C88.3184 274.375 88.9347 274.696 89.0736 275.486Z" fill="#263238"/>
<path d="M90.7923 271.198C90.921 272.019 90.5873 272.843 89.9243 273.342C89.3079 273.742 88.7003 273.421 88.5614 272.631C88.4327 271.811 88.7664 270.986 89.4295 270.487C90.0458 270.096 90.6534 270.408 90.7923 271.198Z" fill="#263238"/>
<path d="M86.3473 274.054C86.476 274.874 86.1422 275.699 85.4792 276.198C84.8629 276.597 84.2553 276.276 84.1164 275.486C83.9897 274.666 84.323 273.843 84.9844 273.342C85.6008 272.952 86.2084 273.264 86.3473 274.054Z" fill="#263238"/>
<path d="M88.1097 269.801C88.2364 270.621 87.9031 271.444 87.2416 271.945C86.6253 272.336 86.0177 272.023 85.8788 271.233C85.7501 270.413 86.0838 269.589 86.7469 269.089C87.3632 268.69 87.9448 269.011 88.1097 269.801Z" fill="#263238"/>
<path d="M89.1165 275.513C89.2452 276.333 88.9115 277.157 88.2485 277.657C87.6322 278.056 87.0245 277.735 86.8856 276.945C86.7569 276.125 87.0907 275.3 87.7537 274.801C88.37 274.41 88.9776 274.723 89.1165 275.513Z" fill="#263238"/>
<path d="M90.8352 271.233C90.9605 272.05 90.6271 272.87 89.9671 273.368C89.3595 273.768 88.7432 273.446 88.6043 272.656C88.4814 271.837 88.814 271.016 89.4723 270.512C90.0887 270.122 90.6963 270.443 90.8352 271.233Z" fill="#263238"/>
<path d="M86.3912 274.089C86.5179 274.909 86.1846 275.732 85.5231 276.233C84.9155 276.624 84.2992 276.302 84.1603 275.512C84.0393 274.693 84.3715 273.873 85.0283 273.368C85.6446 272.978 86.2523 273.299 86.3912 274.089Z" fill="#263238"/>
<path d="M88.1535 269.827C88.2822 270.647 87.9485 271.471 87.2855 271.971C86.6778 272.37 86.0615 272.049 85.9226 271.259C85.7998 270.44 86.1324 269.618 86.7907 269.115C87.407 268.724 88.0147 269.037 88.1535 269.827Z" fill="#263238"/>
<path d="M89.1604 275.547C89.2857 276.365 88.9523 277.185 88.2923 277.683C87.6847 278.082 87.0684 277.761 86.9295 276.971C86.8066 276.151 87.1392 275.33 87.7975 274.827C88.4139 274.436 89.0215 274.757 89.1604 275.547Z" fill="#263238"/>
<path d="M90.888 271.259C91.0109 272.079 90.6783 272.9 90.02 273.403C89.4036 273.794 88.796 273.473 88.6571 272.691C88.5284 271.871 88.8622 271.047 89.5252 270.547C90.1328 270.148 90.7491 270.469 90.888 271.259Z" fill="#263238"/>
<path d="M86.4427 274.115C86.5656 274.934 86.233 275.756 85.5747 276.259C84.9583 276.65 84.3507 276.337 84.2118 275.547C84.0831 274.727 84.4168 273.903 85.0799 273.403C85.6875 273.004 86.3038 273.325 86.4427 274.115Z" fill="#263238"/>
<path d="M88.2052 269.861C88.328 270.681 87.9955 271.502 87.3371 272.005C86.7208 272.396 86.1132 272.075 85.9743 271.285C85.8489 270.468 86.1823 269.648 86.8423 269.15C87.45 268.75 88.0663 269.097 88.2052 269.861Z" fill="#263238"/>
<path d="M89.2122 275.573C89.3351 276.393 89.0025 277.214 88.3442 277.717C87.7279 278.108 87.1202 277.795 86.9813 277.006C86.8526 276.185 87.1864 275.361 87.8494 274.861C88.457 274.462 89.0734 274.783 89.2122 275.573Z" fill="#263238"/>
<path d="M90.9313 271.285C91.06 272.105 90.7262 272.93 90.0632 273.429C89.4469 273.828 88.8393 273.507 88.7004 272.717C88.5736 271.897 88.907 271.074 89.5684 270.573C90.1847 270.183 90.7924 270.495 90.9313 271.285Z" fill="#263238"/>
<path d="M86.4869 274.141C86.6156 274.961 86.2819 275.785 85.6189 276.285C85.0026 276.684 84.3949 276.363 84.256 275.573C84.1293 274.753 84.4626 273.93 85.1241 273.429C85.7404 273.039 86.348 273.351 86.4869 274.141Z" fill="#263238"/>
<path d="M88.2484 269.887C88.3751 270.707 88.0418 271.531 87.3803 272.032C86.764 272.422 86.1564 272.11 86.0175 271.32C85.8888 270.5 86.2225 269.675 86.8855 269.176C87.5018 268.776 88.1095 269.098 88.2484 269.887Z" fill="#263238"/>
<path d="M89.2555 275.599C89.3842 276.419 89.0505 277.244 88.3874 277.743C87.7711 278.143 87.1635 277.821 87.0246 277.032C86.8979 276.212 87.2312 275.388 87.8926 274.887C88.509 274.497 89.1166 274.809 89.2555 275.599Z" fill="#263238"/>
<path d="M90.9742 271.32C91.099 272.139 90.7661 272.962 90.1062 273.464C89.4899 273.855 88.8822 273.533 88.7433 272.743C88.6166 271.923 88.9499 271.1 89.6114 270.599C90.2277 270.209 90.8353 270.53 90.9742 271.32Z" fill="#263238"/>
<path d="M86.53 274.176C86.6567 274.996 86.3234 275.819 85.6619 276.32C85.0543 276.711 84.438 276.389 84.2991 275.599C84.1777 274.783 84.5103 273.964 85.1671 273.464C85.7835 273.065 86.3911 273.386 86.53 274.176Z" fill="#263238"/>
<path d="M88.2922 269.914C88.4209 270.734 88.0872 271.558 87.4242 272.058C86.8165 272.457 86.2002 272.136 86.0613 271.346C85.9385 270.526 86.271 269.705 86.9294 269.202C87.5457 268.811 88.1533 269.098 88.2922 269.914Z" fill="#263238"/>
<path d="M89.2991 275.634C89.4238 276.454 89.0909 277.276 88.431 277.778C87.8234 278.169 87.207 277.848 87.0681 277.058C86.9453 276.238 87.2779 275.417 87.9362 274.914C88.5525 274.523 89.1602 274.844 89.2991 275.634Z" fill="#263238"/>
<path d="M91.0175 271.346C91.1442 272.166 90.8109 272.989 90.1494 273.49C89.5418 273.88 88.9255 273.568 88.7866 272.778C88.6618 271.958 88.9948 271.136 89.6547 270.634C90.271 270.235 90.8786 270.556 91.0175 271.346Z" fill="#263238"/>
<path d="M86.5824 274.202C86.7052 275.021 86.3726 275.843 85.7143 276.346C85.098 276.736 84.4903 276.424 84.3515 275.634C84.2228 274.814 84.5565 273.99 85.2195 273.49C85.8271 273.091 86.4435 273.438 86.5824 274.202Z" fill="#263238"/>
<path d="M88.3441 269.966C88.4669 270.785 88.1344 271.607 87.476 272.11C86.8597 272.5 86.2521 272.179 86.1132 271.398C85.9845 270.578 86.3182 269.753 86.9812 269.254C87.5889 268.837 88.2052 269.158 88.3441 269.966Z" fill="#263238"/>
<path d="M89.3509 275.66C89.4738 276.48 89.1412 277.301 88.4829 277.804C87.8665 278.195 87.2589 277.882 87.12 277.092C86.9913 276.272 87.325 275.448 87.9881 274.948C88.5957 274.549 89.212 274.87 89.3509 275.66Z" fill="#263238"/>
<path d="M91.0699 271.372C91.1947 272.192 90.8618 273.014 90.2019 273.516C89.5856 273.915 88.9779 273.594 88.839 272.804C88.7123 271.984 89.0456 271.161 89.7071 270.66C90.3147 270.27 90.9311 270.582 91.0699 271.372Z" fill="#263238"/>
<path d="M86.6256 274.228C86.7543 275.048 86.4206 275.872 85.7575 276.372C85.1412 276.771 84.5336 276.45 84.3947 275.66C84.268 274.84 84.6013 274.017 85.2628 273.516C85.8791 273.125 86.4867 273.438 86.6256 274.228Z" fill="#263238"/>
<path d="M88.388 269.966C88.5167 270.786 88.183 271.61 87.52 272.11C86.9036 272.509 86.296 272.188 86.1571 271.398C86.0284 270.578 86.3622 269.753 87.0252 269.254C87.6415 268.863 88.2491 269.184 88.388 269.966Z" fill="#263238"/>
<path d="M89.3942 275.686C89.5229 276.506 89.1891 277.331 88.5261 277.83C87.9098 278.23 87.3021 277.908 87.1633 277.118C87.0365 276.299 87.3699 275.475 88.0313 274.974C88.6476 274.584 89.2553 274.896 89.3942 275.686Z" fill="#263238"/>
<path d="M91.1134 271.407C91.2401 272.226 90.9068 273.05 90.2453 273.551C89.629 273.941 89.0214 273.62 88.8825 272.83C88.7571 272.013 89.0905 271.193 89.7505 270.695C90.3668 270.295 90.9745 270.617 91.1134 271.407Z" fill="#263238"/>
<path d="M86.6693 274.306C86.796 275.126 86.4627 275.949 85.8012 276.45C85.1936 276.841 84.5773 276.519 84.4384 275.738C84.3097 274.918 84.6434 274.094 85.3064 273.594C85.9227 273.151 86.5304 273.438 86.6693 274.306Z" fill="#263238"/>
<path d="M88.4313 270.009C88.5566 270.826 88.2232 271.646 87.5632 272.144C86.9469 272.544 86.3393 272.223 86.2004 271.433C86.0736 270.613 86.407 269.789 87.0684 269.289C87.6847 268.898 88.2924 269.219 88.4313 270.009Z" fill="#263238"/>
<path d="M89.4376 275.721C89.5643 276.541 89.231 277.364 88.5695 277.865C87.9619 278.255 87.3456 277.934 87.2067 277.144C87.0814 276.327 87.4147 275.507 88.0747 275.009C88.6911 274.61 89.2987 274.931 89.4376 275.721Z" fill="#263238"/>
<path d="M91.1571 271.433C91.2839 272.253 90.9505 273.076 90.2891 273.577C89.6815 273.967 89.0651 273.655 88.9262 272.865C88.8015 272.045 89.1344 271.223 89.7943 270.721C90.4106 270.322 91.0183 270.643 91.1571 271.433Z" fill="#263238"/>
<path d="M86.7118 274.306C86.8405 275.126 86.5068 275.95 85.8438 276.45C85.2361 276.849 84.6285 276.528 84.4809 275.738C84.3562 274.918 84.6891 274.096 85.349 273.594C85.9653 273.177 86.5729 273.498 86.7118 274.306Z" fill="#263238"/>
<path d="M88.4745 270.035C88.6013 270.855 88.2679 271.678 87.6065 272.179C86.9988 272.57 86.3825 272.249 86.2436 271.467C86.1188 270.648 86.4518 269.825 87.1117 269.323C87.728 268.924 88.3356 269.245 88.4745 270.035Z" fill="#263238"/>
<path d="M89.4809 275.747C89.6076 276.567 89.2743 277.39 88.6128 277.891C88.0052 278.282 87.3976 277.969 87.2587 277.179C87.13 276.359 87.4637 275.535 88.1267 275.035C88.7344 274.636 89.342 274.957 89.4809 275.747Z" fill="#263238"/>
<path d="M91.2086 271.459C91.3334 272.278 91.0004 273.101 90.3406 273.603C89.7242 274.002 89.1166 273.681 88.9777 272.891C88.851 272.071 89.1843 271.248 89.8458 270.747C90.4534 270.356 91.0697 270.678 91.2086 271.459Z" fill="#263238"/>
<path d="M86.7643 274.306C86.8857 275.123 86.5531 275.941 85.8962 276.441C85.2799 276.841 84.6723 276.52 84.5334 275.73C84.4066 274.91 84.74 274.086 85.4014 273.585C86.0091 273.212 86.6254 273.533 86.7643 274.306Z" fill="#263238"/>
<path d="M88.526 270.061C88.6508 270.881 88.3178 271.703 87.6579 272.205C87.0416 272.605 86.434 272.283 86.2951 271.493C86.1684 270.674 86.5017 269.85 87.1631 269.349C87.7708 268.959 88.3871 269.271 88.526 270.061Z" fill="#263238"/>
<path d="M89.5338 275.773C89.6586 276.593 89.3256 277.415 88.6658 277.917C88.0494 278.316 87.4418 277.995 87.3029 277.205C87.1762 276.385 87.5095 275.562 88.171 275.061C88.8133 274.671 89.3949 274.992 89.5338 275.773Z" fill="#263238"/>
<path d="M91.2523 271.493C91.379 272.313 91.0457 273.137 90.3842 273.638C89.7679 274.028 89.1603 273.707 89.0214 272.926C88.8927 272.106 89.2264 271.281 89.8894 270.782C90.5492 270.382 91.1134 270.704 91.2523 271.493Z" fill="#263238"/>
<path d="M86.8079 274.349C86.9347 275.169 86.6013 275.993 85.9399 276.493C85.3236 276.884 84.7159 276.563 84.577 275.782C84.4483 274.962 84.7821 274.137 85.4451 273.638C86.0614 273.238 86.6691 273.559 86.8079 274.349Z" fill="#263238"/>
<path d="M88.5699 270.096C88.6947 270.916 88.3618 271.738 87.7019 272.24C87.0856 272.631 86.4779 272.309 86.339 271.52C86.2123 270.7 86.5456 269.876 87.2071 269.375C87.8234 268.985 88.4311 269.306 88.5699 270.096Z" fill="#263238"/>
<path d="M89.5765 275.808C89.7032 276.628 89.3699 277.451 88.7084 277.952C88.0921 278.342 87.4845 278.021 87.3456 277.24C87.2169 276.42 87.5506 275.595 88.2136 275.096C88.8126 274.697 89.4376 275.018 89.5765 275.808Z" fill="#263238"/>
<path d="M91.2958 271.52C91.4245 272.34 91.0908 273.164 90.4278 273.664C89.8201 274.063 89.2038 273.742 89.0649 272.952C88.9401 272.132 89.2731 271.31 89.933 270.808C90.5493 270.408 91.1569 270.73 91.2958 271.52Z" fill="#263238"/>
<path d="M86.8508 274.375C86.9795 275.196 86.6458 276.02 85.9828 276.519C85.3751 276.919 84.7588 276.598 84.6199 275.808C84.4971 274.988 84.8296 274.167 85.488 273.664C86.1043 273.273 86.7119 273.585 86.8508 274.375Z" fill="#263238"/>
<path d="M104.907 259.662L105.549 260L103.327 261.433L102.685 261.094L104.907 259.662Z" fill="#263238"/>
<path d="M103.188 263.95L103.83 264.288L101.608 265.712L100.966 265.374L103.188 263.95Z" fill="#263238"/>
<path d="M106.052 262.856L105.931 262.188L107.641 261.094L108.274 261.433L106.052 262.856Z" fill="#263238"/>
<path d="M100.966 265.374L101.608 265.712L102.112 268.568L101.469 268.238L100.966 265.374Z" fill="#263238"/>
<path d="M104.194 269.662L104.837 270L104.333 267.145L103.812 267.483L104.194 269.662Z" fill="#263238"/>
<path d="M88.5699 270.096C88.6947 270.916 88.3618 271.738 87.7019 272.24C87.0856 272.631 86.4779 272.309 86.339 271.52C86.2123 270.7 86.5456 269.876 87.2071 269.375C87.8234 268.985 88.4311 269.306 88.5699 270.096Z" fill="#BA68C8"/>
<path d="M89.5765 275.808C89.7032 276.628 89.3699 277.451 88.7084 277.952C88.0921 278.342 87.4845 278.021 87.3456 277.24C87.2169 276.42 87.5506 275.595 88.2136 275.096C88.8126 274.697 89.4376 275.018 89.5765 275.808Z" fill="#BA68C8"/>
<path d="M91.2958 271.52C91.4245 272.34 91.0908 273.164 90.4278 273.664C89.8201 274.063 89.2038 273.742 89.0649 272.952C88.9401 272.132 89.2731 271.31 89.933 270.808C90.5493 270.408 91.1569 270.73 91.2958 271.52Z" fill="#BA68C8"/>
<path d="M86.8508 274.375C86.9795 275.196 86.6458 276.02 85.9828 276.519C85.3751 276.919 84.7588 276.598 84.6199 275.808C84.4971 274.988 84.8296 274.167 85.488 273.664C86.1043 273.273 86.7119 273.585 86.8508 274.375Z" fill="#BA68C8"/>
<path d="M109.924 27.509L100.593 32.891C100.644 32.4821 100.67 32.0704 100.671 31.6583V28.9587C100.671 24.1496 97.2939 22.1965 93.136 24.6184C91.3383 25.7197 89.8036 27.2011 88.6394 28.9587C87.9537 22.8823 83.2141 20.66 77.4502 23.9847C71.2176 27.5871 66.1655 36.3371 66.1655 43.5246V47.5698C66.1257 49.1843 66.4522 50.7869 67.1203 52.2573L59.3686 56.7278C56.8996 58.3401 55.3459 61.0317 55.1846 63.976C55.1846 66.641 57.0596 67.726 59.3686 66.3892L109.924 37.2052C112.393 35.5929 113.947 32.9013 114.108 29.9569C114.108 27.2573 112.251 26.1722 109.924 27.509Z" fill="#F0F0F0"/>
<path d="M303.804 270.061L302.068 269.08L303.301 268.524C303.301 268.524 304.265 268.785 304.291 268.828C304.283 269.052 304.259 269.276 304.221 269.497L303.804 270.061Z" fill="#E0E0E0"/>
<path d="M303.804 270.061L302.068 269.08L303.301 268.524C303.301 268.524 304.265 268.785 304.291 268.828C304.283 269.052 304.259 269.276 304.221 269.497L303.804 270.061Z" fill="#BA68C8"/>
<path opacity="0.1" d="M303.804 270.061L302.068 269.08L303.301 268.524C303.301 268.524 304.265 268.785 304.291 268.828C304.283 269.052 304.259 269.276 304.221 269.497L303.804 270.061Z" fill="white"/>
<path d="M239.204 302.604C240.764 303.395 242.608 303.395 244.169 302.604L299.846 270.486L216.513 222.361L214.568 221.241L158.891 253.36C157.528 254.149 157.528 255.443 158.891 256.224L239.204 302.604Z" fill="#BA68C8"/>
<path opacity="0.8" d="M239.204 302.604C240.764 303.395 242.608 303.395 244.169 302.604L299.846 270.486L216.513 222.361L214.568 221.241L158.891 253.36C157.528 254.149 157.528 255.443 158.891 256.224L239.204 302.604Z" fill="white"/>
<path d="M260.115 241.875L279.533 253.047L292.103 245.79L306.695 254.245V264.757C306.695 266.033 305.262 267.847 304.742 267.552C303.778 267.785 302.842 268.117 301.947 268.542C300.486 269.372 299.131 270.375 297.91 271.528L253.292 245.773L260.115 241.875Z" fill="#E0E0E0"/>
<path d="M260.115 241.875L279.533 253.047L292.103 245.79L306.695 254.245V264.757C306.695 266.033 305.262 267.847 304.742 267.552C303.778 267.785 302.842 268.117 301.947 268.542C300.486 269.372 299.131 270.375 297.91 271.528L253.292 245.773L260.115 241.875Z" fill="#BA68C8"/>
<path opacity="0.1" d="M260.115 241.875L279.533 253.047L292.103 245.79L306.695 254.245V264.757C306.695 266.033 305.262 267.847 304.742 267.552C303.778 267.785 302.842 268.117 301.947 268.542C300.486 269.372 299.131 270.375 297.91 271.528L253.292 245.773L260.115 241.875Z" fill="white"/>
<path d="M244.195 302.596L247.554 300.651L297.962 271.554C298 270.896 298.239 270.266 298.648 269.748C299.243 268.957 299.993 268.296 300.853 267.804C301.572 267.364 302.389 267.11 303.231 267.066C303.794 267.058 304.344 267.239 304.794 267.578C305.45 266.29 305.769 264.857 305.722 263.412H307.632C307.632 266.016 306.764 268.689 305.696 269.297L304.733 269.861C304.186 270.174 303.752 270.191 303.752 269.861V269.349C303.752 268.776 302.884 268.802 301.808 269.427C300.731 270.052 299.872 271.007 299.872 271.58V272.101C299.872 272.396 299.125 273.056 298.222 273.577L249.472 301.728L244.195 304.766C243.431 305.161 242.581 305.361 241.721 305.347V303.143C242.579 303.178 243.431 302.989 244.195 302.596Z" fill="#BA68C8"/>
<path opacity="0.6" d="M244.195 302.596L247.554 300.651L297.962 271.554C298 270.896 298.239 270.266 298.648 269.748C299.243 268.957 299.993 268.296 300.853 267.804C301.572 267.364 302.389 267.11 303.231 267.066C303.794 267.058 304.344 267.239 304.794 267.578C305.45 266.29 305.769 264.857 305.722 263.412H307.632C307.632 266.016 306.764 268.689 305.696 269.297L304.733 269.861C304.186 270.174 303.752 270.191 303.752 269.861V269.349C303.752 268.776 302.884 268.802 301.808 269.427C300.731 270.052 299.872 271.007 299.872 271.58V272.101C299.872 272.396 299.125 273.056 298.222 273.577L249.472 301.728L244.195 304.766C243.431 305.161 242.581 305.361 241.721 305.347V303.143C242.579 303.178 243.431 302.989 244.195 302.596Z" fill="white"/>
<path d="M157.85 254.749V256.997C157.908 257.607 158.284 258.142 158.839 258.403L233.9 301.736L239.169 304.775C239.933 305.17 240.783 305.37 241.643 305.356V303.151C240.777 303.172 239.921 302.965 239.16 302.552L235.81 300.617L158.839 256.163C158.282 255.901 157.905 255.362 157.85 254.749H157.85Z" fill="#BA68C8"/>
<path opacity="0.1" d="M157.85 254.749V256.997C157.908 257.607 158.284 258.142 158.839 258.403L233.9 301.736L239.169 304.775C239.933 305.17 240.783 305.37 241.643 305.356V303.151C240.777 303.172 239.921 302.965 239.16 302.552L235.81 300.617L158.839 256.163C158.282 255.901 157.905 255.362 157.85 254.749H157.85Z" fill="white"/>
<path d="M241.687 288.333V301.215C242.261 301.233 242.83 301.098 243.336 300.825L249.412 297.301L295.931 270.443V257.005L241.687 288.333Z" fill="white"/>
<path d="M160.271 242.934V252.839C160.333 254.002 160.946 255.066 161.921 255.703L233.969 297.283L240.046 300.807C240.552 301.079 241.121 301.214 241.695 301.198V289.696L160.271 242.934Z" fill="#F0F0F0"/>
<path d="M295.966 270.425C296.012 269.766 296.257 269.137 296.669 268.62C297.267 267.834 298.017 267.175 298.874 266.684C299.587 266.237 300.403 265.98 301.244 265.938C301.809 265.933 302.361 266.113 302.815 266.45V253.038L295.983 256.988L295.966 270.425Z" fill="#455A64"/>
<path d="M298.7 266.797C297.909 267.264 297.219 267.884 296.669 268.62C296.257 269.137 296.012 269.766 295.966 270.426V257.613H298.692L298.7 266.797Z" fill="#F5F5F5"/>
<path d="M216.495 206.597L299.828 254.722V255.842C299.828 256.458 300.697 256.71 301.764 256.068C302.832 255.425 303.709 254.679 303.709 253.611L303.813 252.552L218.891 203.524L218.552 203.325C218.464 203.481 218.413 203.657 218.405 203.837V204.358C218.422 205 217.563 205.998 216.495 206.597Z" fill="#BA68C8"/>
<path opacity="0.6" d="M216.495 206.597L299.828 254.722V255.842C299.828 256.458 300.697 256.71 301.764 256.068C302.832 255.425 303.709 254.679 303.709 253.611L303.813 252.552L218.891 203.524L218.552 203.325C218.464 203.481 218.413 203.657 218.405 203.837V204.358C218.422 205 217.563 205.998 216.495 206.597Z" fill="white"/>
<path d="M244.195 286.901L298.639 255.46C299.325 255.104 299.959 254.809 300.228 254.948L299.872 254.748L216.539 206.623L215.566 206.059C214.683 205.808 213.733 205.95 212.962 206.45L158.943 237.648C157.58 238.438 157.58 239.722 158.943 240.512L239.273 286.901C240.822 287.677 242.646 287.677 244.195 286.901Z" fill="#BA68C8"/>
<path opacity="0.8" d="M244.195 286.901L298.639 255.46C299.325 255.104 299.959 254.809 300.228 254.948L299.872 254.748L216.539 206.623L215.566 206.059C214.683 205.808 213.733 205.95 212.962 206.45L158.943 237.648C157.58 238.438 157.58 239.722 158.943 240.512L239.273 286.901C240.822 287.677 242.646 287.677 244.195 286.901Z" fill="white"/>
<path d="M218.57 203.351L218.909 203.55L303.831 252.604C303.874 252.514 303.936 252.434 304.013 252.37L304.299 252.205L304.916 251.858L305.671 251.415C305.973 251.214 306.373 251.251 306.635 251.502C306.671 251.526 306.703 251.555 306.73 251.589C306.832 251.693 306.917 251.813 306.982 251.945C307.074 252.095 307.15 252.255 307.207 252.422C307.274 252.601 307.329 252.783 307.372 252.969C307.424 253.186 307.459 253.394 307.503 253.62C307.526 253.749 307.541 253.88 307.546 254.011C307.546 254.115 307.546 254.21 307.546 254.332C307.546 254.453 307.546 254.818 307.546 255.07V252.682C307.364 251.092 306.444 249.681 305.063 248.872L224.725 202.483C223.383 201.691 221.748 201.572 220.306 202.162L219.291 202.752L218.857 202.995C218.731 203.086 218.632 203.209 218.57 203.351H218.57Z" fill="#BA68C8"/>
<path opacity="0.8" d="M218.57 203.351L218.909 203.55L303.831 252.604C303.874 252.514 303.936 252.434 304.013 252.37L304.299 252.205L304.916 251.858L305.671 251.415C305.973 251.214 306.373 251.251 306.635 251.502C306.671 251.526 306.703 251.555 306.73 251.589C306.832 251.693 306.917 251.813 306.982 251.945C307.074 252.095 307.15 252.255 307.207 252.422C307.274 252.601 307.329 252.783 307.372 252.969C307.424 253.186 307.459 253.394 307.503 253.62C307.526 253.749 307.541 253.88 307.546 254.011C307.546 254.115 307.546 254.21 307.546 254.332C307.546 254.453 307.546 254.818 307.546 255.07V252.682C307.364 251.092 306.444 249.681 305.063 248.872L224.725 202.483C223.383 201.691 221.748 201.572 220.306 202.162L219.291 202.752L218.857 202.995C218.731 203.086 218.632 203.209 218.57 203.351H218.57Z" fill="white"/>
<path d="M244.195 286.91L247.563 284.957L286.287 262.613L298.648 255.478C299.516 254.957 300.246 254.775 300.289 255.044V255.599C300.289 256.224 301.157 256.224 302.225 255.599C303.029 255.25 303.603 254.519 303.752 253.655V253.047C303.727 252.772 303.833 252.502 304.039 252.318L304.325 252.153L304.942 251.806L305.697 251.363C305.999 251.162 306.399 251.199 306.66 251.45C306.696 251.474 306.729 251.503 306.756 251.537C306.821 251.604 306.876 251.68 306.921 251.762C306.958 251.8 306.987 251.844 307.008 251.893C307.1 252.043 307.176 252.203 307.233 252.37C307.3 252.549 307.355 252.731 307.398 252.917C307.45 253.134 307.485 253.342 307.529 253.568C307.552 253.697 307.567 253.828 307.572 253.959C307.572 254.063 307.572 254.158 307.572 254.28C307.572 254.401 307.572 254.766 307.572 255.018V263.386H305.662V255.018C305.662 254.818 305.662 254.618 305.662 254.427L305.61 253.95C305.614 253.936 305.614 253.921 305.61 253.907C305.437 255.426 303.987 256.78 302.728 257.492C302.029 257.933 301.227 258.184 300.402 258.221C299.765 258.229 299.147 258.003 298.666 257.587L298.492 257.683L298.162 257.882L249.412 286.033L244.195 289.106C243.444 289.491 242.609 289.684 241.765 289.67V287.466C242.608 287.483 243.443 287.293 244.195 286.91Z" fill="#BA68C8"/>
<path opacity="0.6" d="M244.195 286.91L247.563 284.957L286.287 262.613L298.648 255.478C299.516 254.957 300.246 254.775 300.289 255.044V255.599C300.289 256.224 301.157 256.224 302.225 255.599C303.029 255.25 303.603 254.519 303.752 253.655V253.047C303.727 252.772 303.833 252.502 304.039 252.318L304.325 252.153L304.942 251.806L305.697 251.363C305.999 251.162 306.399 251.199 306.66 251.45C306.696 251.474 306.729 251.503 306.756 251.537C306.821 251.604 306.876 251.68 306.921 251.762C306.958 251.8 306.987 251.844 307.008 251.893C307.1 252.043 307.176 252.203 307.233 252.37C307.3 252.549 307.355 252.731 307.398 252.917C307.45 253.134 307.485 253.342 307.529 253.568C307.552 253.697 307.567 253.828 307.572 253.959C307.572 254.063 307.572 254.158 307.572 254.28C307.572 254.401 307.572 254.766 307.572 255.018V263.386H305.662V255.018C305.662 254.818 305.662 254.618 305.662 254.427L305.61 253.95C305.614 253.936 305.614 253.921 305.61 253.907C305.437 255.426 303.987 256.78 302.728 257.492C302.029 257.933 301.227 258.184 300.402 258.221C299.765 258.229 299.147 258.003 298.666 257.587L298.492 257.683L298.162 257.882L249.412 286.033L244.195 289.106C243.444 289.491 242.609 289.684 241.765 289.67V287.466C242.608 287.483 243.443 287.293 244.195 286.91Z" fill="white"/>
<path d="M157.85 239.054V241.32C157.905 241.933 158.282 242.472 158.839 242.735L233.9 286.068L239.169 289.115C239.933 289.51 240.783 289.71 241.643 289.696V287.491C240.779 287.51 239.924 287.307 239.16 286.901L235.81 284.965L158.839 240.512C158.269 240.242 157.89 239.684 157.85 239.054Z" fill="#BA68C8"/>
<path opacity="0.1" d="M157.85 239.054V241.32C157.905 241.933 158.282 242.472 158.839 242.735L233.9 286.068L239.169 289.115C239.933 289.51 240.783 289.71 241.643 289.696V287.491C240.779 287.51 239.924 287.307 239.16 286.901L235.81 284.965L158.839 240.512C158.269 240.242 157.89 239.684 157.85 239.054Z" fill="white"/>
<path d="M212.892 206.45C213.663 205.95 214.613 205.808 215.497 206.059L216.469 206.624C217.536 205.999 218.396 205 218.396 204.384V203.863C218.404 203.683 218.455 203.508 218.543 203.351C218.611 203.21 218.716 203.09 218.847 203.004L219.281 202.761L220.297 202.17C221.739 201.581 223.374 201.7 224.715 202.492L305.054 248.88L305.141 248.933L248.448 281.667C247.409 282.197 246.179 282.197 245.141 281.667L164.281 234.523L212.892 206.45Z" fill="#263238"/>
<path d="M252.988 276.91L250.844 275.677C251.421 275.477 252.041 275.432 252.641 275.547C253.214 275.842 252.988 276.91 252.988 276.91Z" fill="#BA68C8"/>
<path opacity="0.7" d="M252.988 276.91L250.844 275.677C251.421 275.477 252.041 275.432 252.641 275.547C253.214 275.842 252.988 276.91 252.988 276.91Z" fill="black"/>
<path d="M254.464 275.582C253.971 275.047 253.277 274.743 252.549 274.743C251.822 274.743 251.128 275.047 250.635 275.582C248.543 277.5 248.439 279.401 247.571 279.375C246.703 279.349 246.703 264.054 246.703 264.054L254.958 271.702L254.464 275.582Z" fill="#BA68C8"/>
<path opacity="0.7" d="M254.464 275.582C253.971 275.047 253.277 274.743 252.549 274.743C251.822 274.743 251.128 275.047 250.635 275.582C248.543 277.5 248.439 279.401 247.571 279.375C246.703 279.349 246.703 264.054 246.703 264.054L254.958 271.702L254.464 275.582Z" fill="black"/>
<path d="M168.162 219.983L168.023 219.905L169.343 219.141L226.183 186.328L309.004 239.922C310.367 240.712 310.61 241.858 309.543 242.466L307.607 243.585L254.482 274.306L254.1 274.028L168.162 219.983Z" fill="#BA68C8"/>
<path opacity="0.5" d="M168.162 219.983L168.023 219.905L169.343 219.141L226.183 186.328L309.004 239.922C310.367 240.712 310.61 241.858 309.543 242.466L307.607 243.585L254.482 274.306L254.1 274.028L168.162 219.983Z" fill="black"/>
<path d="M247.39 256.814L251.504 255.946V272.439C249.022 273.498 247.442 274.488 247.164 276.563L247.39 256.814Z" fill="#455A64"/>
<path d="M253.318 272.656L305.948 242.274C306.926 241.639 307.542 240.575 307.606 239.41V223.168L254.464 254.115C254.464 254.115 253.83 256.415 251.946 257.135C250.063 257.856 251.504 258.594 251.504 258.594V272.483C253.127 272.248 253.318 272.656 253.318 272.656Z" fill="#F0F0F0"/>
<path d="M248.466 256.25C249.013 255.938 249.447 255.92 249.447 256.25V256.762C249.447 257.335 250.315 257.309 251.391 256.684C252.468 256.059 253.336 255.104 253.336 254.531V254.011C253.336 253.715 254.073 253.056 254.976 252.535L169.351 203.472L168.023 204.236C167.839 204.432 167.723 204.681 167.693 204.948V205.469C167.693 206.042 166.825 207.005 165.757 207.622C164.69 208.238 163.813 208.273 163.813 207.7V207.179C163.813 206.884 163.379 206.91 162.841 207.222L248.466 256.25Z" fill="#BA68C8"/>
<path opacity="0.6" d="M248.466 256.25C249.013 255.938 249.447 255.92 249.447 256.25V256.762C249.447 257.335 250.315 257.309 251.391 256.684C252.468 256.059 253.336 255.104 253.336 254.531V254.011C253.336 253.715 254.073 253.056 254.976 252.535L169.351 203.472L168.023 204.236C167.839 204.432 167.723 204.681 167.693 204.948V205.469C167.693 206.042 166.825 207.005 165.757 207.622C164.69 208.238 163.813 208.273 163.813 207.7V207.179C163.813 206.884 163.379 206.91 162.841 207.222L248.466 256.25Z" fill="black"/>
<path d="M168.162 204.28L168.023 204.202L169.343 203.438L226.183 170.625L309.004 218.455C310.367 219.245 310.61 220.382 309.543 220.999L307.607 222.11L254.464 254.115L168.162 204.28Z" fill="#BA68C8"/>
<path opacity="0.5" d="M168.162 204.28L168.023 204.202L169.343 203.438L226.183 170.625L309.004 218.455C310.367 219.245 310.61 220.382 309.543 220.999L307.607 222.11L254.464 254.115L168.162 204.28Z" fill="black"/>
<path d="M163.796 206.649L249.403 256.076L246.409 258.42L161.122 209.184C161.33 208.551 161.727 207.997 162.259 207.596L163.796 206.649Z" fill="#BA68C8"/>
<path opacity="0.5" d="M163.796 206.649L249.403 256.076L246.409 258.42L161.122 209.184C161.33 208.551 161.727 207.997 162.259 207.596L163.796 206.649Z" fill="black"/>
<path d="M161.408 231.276C161.355 231.244 161.306 231.206 161.261 231.163C161.221 231.144 161.188 231.114 161.165 231.077C161.095 231.008 161.036 230.929 160.992 230.842C160.953 230.809 160.923 230.768 160.905 230.721C160.812 230.572 160.739 230.411 160.688 230.243C160.616 230.063 160.558 229.877 160.514 229.688C160.462 229.479 160.427 229.271 160.393 229.045C160.362 228.917 160.345 228.786 160.34 228.655V228.333C160.34 228.099 160.34 227.847 160.34 227.596V213.455C160.325 211.97 160.596 210.497 161.139 209.115L246.426 258.351L246.781 280.504L161.504 231.25L161.408 231.276Z" fill="#BA68C8"/>
<path opacity="0.7" d="M161.408 231.276C161.355 231.244 161.306 231.206 161.261 231.163C161.221 231.144 161.188 231.114 161.165 231.077C161.095 231.008 161.036 230.929 160.992 230.842C160.953 230.809 160.923 230.768 160.905 230.721C160.812 230.572 160.739 230.411 160.688 230.243C160.616 230.063 160.558 229.877 160.514 229.688C160.462 229.479 160.427 229.271 160.393 229.045C160.362 228.917 160.345 228.786 160.34 228.655V228.333C160.34 228.099 160.34 227.847 160.34 227.596V213.455C160.325 211.97 160.596 210.497 161.139 209.115L246.426 258.351L246.781 280.504L161.504 231.25L161.408 231.276Z" fill="black"/>
<path opacity="0.79" d="M246.365 258.386C246.365 258.386 179.195 226.953 173.084 224.071C169.048 222.17 167.068 226.163 168.023 230.295C168.891 233.906 172.424 237.63 172.424 237.63L161.443 231.285C161.391 231.252 161.341 231.214 161.296 231.172C161.256 231.153 161.223 231.123 161.2 231.085C161.13 231.017 161.072 230.938 161.027 230.851C160.988 230.818 160.959 230.776 160.94 230.729C160.847 230.58 160.774 230.42 160.723 230.252C160.651 230.071 160.593 229.886 160.549 229.696C160.497 229.488 160.462 229.28 160.428 229.054C160.398 228.926 160.38 228.795 160.376 228.663V228.342C160.376 228.108 160.376 227.856 160.376 227.604V213.455C160.36 211.97 160.631 210.497 161.174 209.115L246.365 258.386Z" fill="#263238"/>
<path d="M245.575 262.7H247.485C247.44 261.256 247.756 259.824 248.405 258.533C248.859 258.87 249.411 259.05 249.976 259.045C250.817 259.002 251.633 258.745 252.346 258.299C253.205 257.81 253.955 257.152 254.551 256.363C254.596 256.309 254.637 256.251 254.672 256.189C255.01 255.709 255.205 255.144 255.237 254.557L305.645 225.46L307.381 224.462L309.568 223.203C309.956 223.026 310.214 222.648 310.237 222.222V219.991C310.217 220.425 309.96 220.812 309.568 220.998L303.778 224.332L255.037 252.483C254.126 253.004 253.388 253.663 253.388 253.958V254.479C253.333 254.809 253.175 255.113 252.936 255.347C252.518 255.851 252.012 256.274 251.443 256.597C250.367 257.222 249.499 257.248 249.499 256.675V256.163C249.499 255.86 249.073 255.886 248.527 256.163L247.563 256.728C246.443 257.422 245.575 260.07 245.575 262.7Z" fill="#BA68C8"/>
<path d="M247.485 262.7V276.841C247.485 277.04 247.485 277.24 247.485 277.431L247.528 277.908C247.524 277.922 247.524 277.937 247.528 277.952C247.702 276.433 249.152 275.078 250.41 274.367C251.112 273.925 251.917 273.673 252.745 273.637C253.382 273.629 254 273.855 254.481 274.271L254.646 274.176L254.985 273.976L303.726 245.825L306.53 244.21L307.329 243.742L309.69 242.379C310.005 242.181 310.201 241.839 310.211 241.467V243.698C310.197 244.049 310.016 244.372 309.725 244.566C309.447 244.731 309.152 244.887 308.856 245.07L308.31 245.391L307.372 245.929C307.164 246.059 306.973 246.172 306.79 246.268C306.608 246.363 306.504 246.441 306.382 246.502L305.662 246.927L266.938 269.271L254.577 276.407C253.709 276.927 252.988 277.11 252.936 276.841C252.933 276.809 252.933 276.777 252.936 276.745V276.25C252.936 275.625 252.068 275.625 251.001 276.25C250.196 276.6 249.622 277.331 249.473 278.195V278.802C249.499 279.077 249.392 279.348 249.186 279.532L248.9 279.696L248.292 280.044L247.537 280.486C247.235 280.687 246.835 280.651 246.573 280.4C246.534 280.38 246.501 280.35 246.478 280.313C246.408 280.248 246.349 280.171 246.304 280.087C246.271 280.05 246.241 280.009 246.218 279.966C246.125 279.817 246.052 279.656 246.001 279.488C245.927 279.311 245.869 279.128 245.827 278.941C245.775 278.724 245.74 278.516 245.705 278.29C245.675 278.162 245.657 278.031 245.653 277.9C245.653 277.795 245.653 277.7 245.653 277.578C245.653 277.457 245.653 277.092 245.653 276.841V262.7H247.485Z" fill="#BA68C8"/>
<g opacity="0.6">
<path d="M245.575 262.7H247.485C247.44 261.256 247.756 259.824 248.405 258.533C248.859 258.87 249.411 259.05 249.976 259.045C250.817 259.002 251.633 258.745 252.346 258.299C253.205 257.81 253.955 257.152 254.551 256.363C254.596 256.309 254.637 256.251 254.672 256.189C255.01 255.709 255.205 255.144 255.237 254.557L305.645 225.46L307.381 224.462L309.568 223.203C309.956 223.026 310.214 222.648 310.237 222.222V219.991C310.217 220.425 309.96 220.812 309.568 220.998L303.778 224.332L255.037 252.483C254.126 253.004 253.388 253.663 253.388 253.958V254.479C253.333 254.809 253.175 255.113 252.936 255.347C252.518 255.851 252.012 256.274 251.443 256.597C250.367 257.222 249.499 257.248 249.499 256.675V256.163C249.499 255.86 249.073 255.886 248.527 256.163L247.563 256.728C246.443 257.422 245.575 260.07 245.575 262.7Z" fill="black"/>
<path d="M247.485 262.7V276.84C247.485 277.04 247.485 277.24 247.485 277.431L247.528 277.908C247.524 277.922 247.524 277.937 247.528 277.951C247.702 276.432 249.152 275.078 250.41 274.366C251.112 273.924 251.917 273.673 252.745 273.637C253.382 273.629 254 273.854 254.481 274.271L254.646 274.175L254.985 273.976L303.726 245.825L306.53 244.21L307.329 243.741L309.69 242.378C310.005 242.181 310.201 241.839 310.211 241.467V243.698C310.197 244.049 310.016 244.371 309.725 244.566C309.447 244.731 309.152 244.887 308.856 245.069L308.31 245.391L307.372 245.929C307.164 246.059 306.973 246.172 306.79 246.267C306.608 246.363 306.504 246.441 306.382 246.502L305.662 246.927L266.938 269.271L254.577 276.406C253.709 276.927 252.988 277.109 252.936 276.84C252.933 276.809 252.933 276.777 252.936 276.745V276.25C252.936 275.625 252.068 275.625 251.001 276.25C250.196 276.6 249.622 277.33 249.473 278.194V278.802C249.499 279.077 249.392 279.348 249.186 279.531L248.9 279.696L248.292 280.043L247.537 280.486C247.235 280.687 246.835 280.651 246.573 280.399C246.534 280.38 246.501 280.35 246.478 280.313C246.408 280.247 246.349 280.171 246.304 280.087C246.271 280.05 246.241 280.009 246.218 279.965C246.125 279.816 246.052 279.656 246.001 279.488C245.927 279.311 245.869 279.128 245.827 278.941C245.775 278.724 245.74 278.516 245.705 278.29C245.675 278.162 245.657 278.031 245.653 277.899C245.653 277.795 245.653 277.7 245.653 277.578C245.653 277.457 245.653 277.092 245.653 276.84V262.7H247.485Z" fill="black"/>
</g>
<path d="M161.078 209.141L242.137 255.946L303.405 220.573C303.815 220.436 304.092 220.051 304.092 219.618C304.092 219.185 303.815 218.801 303.405 218.663L223.196 172.344L169.377 203.438L168.049 204.21C167.869 204.404 167.756 204.651 167.727 204.913V205.434C167.727 206.007 166.859 206.971 165.792 207.587C165.737 207.623 165.679 207.652 165.618 207.674L163.83 206.641L162.962 207.127L162.84 207.188L162.215 207.552C161.684 207.954 161.287 208.508 161.078 209.141Z" fill="#263238"/>
<path d="M298.883 220.92L296.443 219.618L298.666 219.089C299.102 219.599 299.188 220.322 298.883 220.92Z" fill="#E0E0E0"/>
<g opacity="0.5" style="mix-blend-mode:multiply">
<path d="M298.883 220.92L296.443 219.618L298.666 219.089C299.102 219.599 299.188 220.322 298.883 220.92Z" fill="#E0E0E0"/>
</g>
<path d="M234.238 253.472C235.796 254.263 237.637 254.263 239.194 253.472L294.872 221.354L211.538 168.672L209.585 167.543L153.917 204.21C152.554 205 152.554 206.285 153.917 207.075L234.238 253.472Z" fill="#BA68C8"/>
<path d="M255.141 188.168L297.207 216.675L274.559 199.314L287.129 192.057L301.747 200.521V215.616C301.747 216.901 300.314 218.715 299.794 218.42C298.83 218.653 297.894 218.985 296.998 219.41C295.538 220.24 294.183 221.243 292.962 222.396L248.353 192.075L255.141 188.168Z" fill="#BA68C8"/>
<path opacity="0.2" d="M255.141 188.168L297.207 216.675L274.559 199.314L287.129 192.057L301.747 200.521V215.616C301.747 216.901 300.314 218.715 299.794 218.42C298.83 218.653 297.894 218.985 296.998 219.41C295.538 220.24 294.183 221.243 292.962 222.396L248.353 192.075L255.141 188.168Z" fill="black"/>
<path d="M236.712 234.627V252.058C237.289 252.07 237.859 251.936 238.37 251.667L244.446 248.143L290.974 221.285V203.281L236.712 234.627Z" fill="white"/>
<path d="M155.297 189.236V203.707C155.361 204.869 155.973 205.932 156.946 206.571L228.995 248.151L235.071 251.676C235.579 251.944 236.146 252.078 236.72 252.066V235.99L155.297 189.236Z" fill="#F0F0F0"/>
<path d="M291 221.285C291.043 220.626 291.285 219.997 291.694 219.479C292.288 218.689 293.038 218.029 293.899 217.544C294.616 217.097 295.434 216.84 296.278 216.797C296.825 216.742 297.374 216.87 297.84 217.162V199.332L291.009 203.281L291 221.285Z" fill="#455A64"/>
<path d="M293.726 217.648C292.939 218.124 292.249 218.745 291.694 219.479C291.285 219.997 291.043 220.627 291 221.285V203.924H293.717L293.726 217.648Z" fill="#F5F5F5"/>
<path d="M211.53 152.917L294.864 201.051V202.162C294.864 202.787 295.732 203.03 296.799 202.396C297.867 201.762 298.752 200.998 298.752 199.931L298.857 198.872L213.935 149.844L213.588 149.644C213.5 149.804 213.453 149.983 213.449 150.165V150.677C213.457 151.294 212.598 152.292 211.53 152.917Z" fill="#BA68C8"/>
<path opacity="0.2" d="M211.53 152.917L294.864 201.051V202.162C294.864 202.787 295.732 203.03 296.799 202.396C297.867 201.762 298.752 200.998 298.752 199.931L298.857 198.872L213.935 149.844L213.588 149.644C213.5 149.804 213.453 149.983 213.449 150.165V150.677C213.457 151.294 212.598 152.292 211.53 152.917Z" fill="black"/>
<path d="M239.194 233.195L293.674 201.762C294.368 201.398 295.002 201.103 295.262 201.241L294.906 201.05L211.573 152.917L210.592 152.361C209.709 152.099 208.755 152.242 207.988 152.752L153.917 183.941C152.554 184.731 152.554 186.024 153.917 186.806L234.255 233.195C235.808 233.979 237.641 233.979 239.194 233.195Z" fill="#BA68C8"/>
<path d="M213.596 149.644L213.943 149.844L298.882 198.872C298.925 198.781 298.987 198.701 299.064 198.637L299.351 198.481L299.959 198.125L300.714 197.682C301.016 197.485 301.415 197.521 301.677 197.769C301.713 197.793 301.745 197.823 301.773 197.856C301.873 197.964 301.961 198.084 302.033 198.212C302.123 198.363 302.195 198.523 302.25 198.689C302.318 198.871 302.376 199.057 302.424 199.245C302.467 199.453 302.511 199.662 302.545 199.887C302.572 200.019 302.589 200.152 302.597 200.287V200.599C302.597 200.833 302.597 201.085 302.597 201.346V198.958C302.421 197.364 301.5 195.948 300.115 195.139L219.776 148.75C218.434 147.96 216.798 147.844 215.358 148.438L214.342 149.028L213.917 149.28C213.777 149.368 213.666 149.495 213.596 149.644Z" fill="#BA68C8"/>
<path d="M239.195 253.472L242.554 251.528L292.962 222.422C293.006 221.764 293.248 221.135 293.656 220.617C294.252 219.828 295.003 219.17 295.861 218.681C296.577 218.241 297.392 217.987 298.231 217.943C298.798 217.931 299.351 218.112 299.802 218.455C300.45 217.161 300.766 215.726 300.722 214.28H302.632C302.632 216.884 301.764 219.558 300.696 220.174L299.733 220.738C299.186 221.051 298.761 221.068 298.761 220.738V220.226C298.761 219.653 297.893 219.679 296.808 220.295C295.722 220.912 294.872 221.884 294.872 222.457V222.969C294.872 223.264 294.134 223.924 293.222 224.453L244.472 252.604L239.195 255.651C238.431 256.046 237.581 256.246 236.721 256.233V254.028C237.579 254.057 238.431 253.866 239.195 253.472Z" fill="#BA68C8"/>
<path opacity="0.4" d="M239.195 253.472L242.554 251.528L292.962 222.422C293.006 221.764 293.248 221.135 293.656 220.617C294.252 219.828 295.003 219.17 295.861 218.681C296.577 218.241 297.392 217.987 298.231 217.943C298.798 217.931 299.351 218.112 299.802 218.455C300.45 217.161 300.766 215.726 300.722 214.28H302.632C302.632 216.884 301.764 219.558 300.696 220.174L299.733 220.738C299.186 221.051 298.761 221.068 298.761 220.738V220.226C298.761 219.653 297.893 219.679 296.808 220.295C295.722 220.912 294.872 221.884 294.872 222.457V222.969C294.872 223.264 294.134 223.924 293.222 224.453L244.472 252.604L239.195 255.651C238.431 256.046 237.581 256.246 236.721 256.233V254.028C237.579 254.057 238.431 253.866 239.195 253.472Z" fill="black"/>
<path d="M239.177 233.203L242.537 231.259L281.261 208.915L293.674 201.762C294.542 201.25 295.271 201.068 295.323 201.337V201.901C295.323 202.517 296.191 202.517 297.259 201.901C298.065 201.55 298.64 200.815 298.787 199.948V199.34C298.761 199.066 298.867 198.795 299.073 198.611L299.36 198.455L299.967 198.099L300.723 197.656C301.025 197.459 301.424 197.495 301.686 197.743C301.722 197.767 301.754 197.797 301.782 197.83C301.849 197.901 301.907 197.979 301.955 198.064C301.988 198.102 302.017 198.143 302.042 198.186C302.131 198.337 302.204 198.497 302.259 198.663C302.327 198.845 302.385 199.031 302.433 199.219C302.476 199.427 302.519 199.636 302.554 199.861C302.581 199.993 302.598 200.126 302.606 200.261V200.573C302.606 200.807 302.606 201.059 302.606 201.32V214.236H300.697V201.389C300.697 201.189 300.697 200.981 300.697 200.79L300.653 200.313C300.479 201.832 299.03 203.186 297.762 203.898C297.065 204.341 296.262 204.593 295.436 204.627C294.799 204.635 294.182 204.41 293.7 203.993L293.535 204.089L293.197 204.288L244.447 232.439L239.169 235.486C238.414 235.872 237.577 236.066 236.729 236.05V233.846C237.586 233.84 238.428 233.619 239.177 233.203Z" fill="#BA68C8"/>
<path opacity="0.4" d="M239.177 233.203L242.537 231.259L281.261 208.915L293.674 201.762C294.542 201.25 295.271 201.068 295.323 201.337V201.901C295.323 202.517 296.191 202.517 297.259 201.901C298.065 201.55 298.64 200.815 298.787 199.948V199.34C298.761 199.066 298.867 198.795 299.073 198.611L299.36 198.455L299.967 198.099L300.723 197.656C301.025 197.459 301.424 197.495 301.686 197.743C301.722 197.767 301.754 197.797 301.782 197.83C301.849 197.901 301.907 197.979 301.955 198.064C301.988 198.102 302.017 198.143 302.042 198.186C302.131 198.337 302.204 198.497 302.259 198.663C302.327 198.845 302.385 199.031 302.433 199.219C302.476 199.427 302.519 199.636 302.554 199.861C302.581 199.993 302.598 200.126 302.606 200.261V200.573C302.606 200.807 302.606 201.059 302.606 201.32V214.236H300.697V201.389C300.697 201.189 300.697 200.981 300.697 200.79L300.653 200.313C300.479 201.832 299.03 203.186 297.762 203.898C297.065 204.341 296.262 204.593 295.436 204.627C294.799 204.635 294.182 204.41 293.7 203.993L293.535 204.089L293.197 204.288L244.447 232.439L239.169 235.486C238.414 235.872 237.577 236.066 236.729 236.05V233.846C237.586 233.84 238.428 233.619 239.177 233.203Z" fill="black"/>
<path d="M152.884 185.347V187.587C152.937 188.199 153.31 188.737 153.865 189.002L228.934 232.335L234.203 235.382C234.965 235.776 235.811 235.976 236.669 235.964V233.759C235.807 233.778 234.955 233.575 234.195 233.169L230.844 231.233L153.917 186.806C153.322 186.557 152.921 185.991 152.884 185.347L152.884 185.347Z" fill="#BA68C8"/>
<path opacity="0.2" d="M152.884 185.347V187.587C152.937 188.199 153.31 188.737 153.865 189.002L228.934 232.335L234.203 235.382C234.965 235.776 235.811 235.976 236.669 235.964V233.759C235.807 233.778 234.955 233.575 234.195 233.169L230.844 231.233L153.917 186.806C153.322 186.557 152.921 185.991 152.884 185.347L152.884 185.347Z" fill="black"/>
<path d="M152.884 205.608V207.847C152.937 208.459 153.31 208.998 153.865 209.262L228.969 252.604L234.238 255.651C234.999 256.045 235.846 256.245 236.703 256.233V254.028C235.842 254.047 234.99 253.844 234.229 253.438L230.879 251.502L153.917 207.066C153.322 206.818 152.921 206.252 152.884 205.608L152.884 205.608Z" fill="#BA68C8"/>
<path opacity="0.2" d="M152.884 205.608V207.847C152.937 208.459 153.31 208.998 153.865 209.262L228.969 252.604L234.238 255.651C234.999 256.045 235.846 256.245 236.703 256.233V254.028C235.842 254.047 234.99 253.844 234.229 253.438L230.879 251.502L153.917 207.066C153.322 206.818 152.921 206.252 152.884 205.608L152.884 205.608Z" fill="black"/>
<path d="M187.555 126.849L179.586 141.051L191.201 147.231L199.655 134.644L187.555 126.849Z" fill="#FFC0C0"/>
<path d="M215.827 94.8614C211.4 94.1062 204.698 93.9065 200.341 101.38C195.983 108.854 186.591 127.301 186.591 127.301C186.591 127.301 192.077 134.401 200.02 135.695L212.997 115.104L215.827 94.8614Z" fill="#BA68C8"/>
<rect x="195.453" y="268.785" width="9.91319" height="16.9705" fill="#FFC0C0"/>
<path d="M176.669 264.653L166.756 264.991L166.261 247.031L176.165 246.693L176.669 264.653Z" fill="#FFC0C0"/>
<path d="M195.454 280.859V279.445C194.508 279.853 192.303 288.264 188.37 291.849C185.245 294.705 180.983 297.995 179.898 301.172C178.77 304.479 185.836 306.311 188.752 305.79C192.147 305.191 198.032 302.804 199.508 300.582C200.983 298.359 201.678 295.104 202.876 293.481C204.074 291.858 206.843 290.009 207.494 288.16C207.85 287.127 207.424 284.87 206.93 282.951C206.469 281.215 205.966 279.271 205.367 279.436V280.512C204.647 281.311 202.659 282.101 200.41 282.188C198.961 282.257 195.445 281.971 195.454 280.859Z" fill="#263238"/>
<path d="M166.651 261.936C166.139 261.936 165.722 262.682 164.585 263.906C162.889 265.62 160.917 267.038 158.752 268.099C155.036 269.965 147.84 272.821 144.559 274.306C142.519 275.226 142.615 277.691 144.724 279.097C146.833 280.504 151.92 281.511 158.04 280.139C161.365 279.392 165.705 276.32 168.457 276.484C171.208 276.649 176.339 276.615 178.361 275.217C180.384 273.82 179.576 270.877 179.003 268.273C178.378 265.478 177.484 261.198 176.556 261.389V262.257C175.366 264.063 169.299 264.8 166.677 263.472L166.651 261.936Z" fill="#263238"/>
<path d="M245.297 165.582C247.467 180.903 244.542 183.811 229.985 198.516C222.172 206.407 209.542 217.978 209.542 217.978C209.542 217.978 209.724 222.874 209.82 233.846C209.915 243.507 205.879 274.948 205.879 274.948C205.879 274.948 199.299 277.717 194.785 274.844C194.785 274.844 192.745 251.45 191.643 239.254C190.15 222.761 189.368 214.445 190.21 210.894C190.957 207.761 205.775 189.045 209.195 183.802L177.702 202.101C178.312 206.737 178.62 211.409 178.622 216.085C178.275 229.202 176.66 255.4 176.66 255.4C176.66 255.4 169.455 258.62 165.879 255.842C165.879 255.842 156.808 198.551 156.808 193.846C156.808 186.702 187.832 165.374 193.709 160.408C197.059 157.578 200.792 154.514 200.792 154.514L245.297 165.582Z" fill="#455A64"/>
<path d="M209.195 183.811C205.883 181.129 203.389 177.571 201.999 173.542C202.173 176.171 202.547 178.782 203.119 181.354C203.987 184.757 177.702 202.101 177.702 202.101L209.195 183.811Z" fill="#37474F"/>
<circle cx="212.998" cy="64.2501" r="14.0712" transform="rotate(-76.81 212.998 64.2501)" fill="#263238"/>
<path d="M242.563 103.386C242.563 103.386 246.035 106.233 246.035 115.226V134.644L245.54 167.301C238.596 174.861 207.346 171.997 199.611 155.504C199.611 155.504 199.672 121.033 199.672 113.308C199.672 105.582 204.012 95.5558 215.818 94.8613L231.113 98.4204L242.563 103.386Z" fill="#263238"/>
<path d="M237.32 74.2537C237.32 74.2537 235.037 84.9655 234.125 86.7276C233.517 87.8139 232.512 88.6227 231.321 88.9846L231.478 81.4498L237.32 74.2537Z" fill="#263238"/>
<path d="M234.455 58.9063C236.061 58.7258 237.661 59.2922 238.796 60.4428C240.671 62.3612 239.62 68.3681 237.285 74.2535L232.988 74.7483L234.455 58.9063Z" fill="#263238"/>
<path d="M231.738 74.7485C232.606 75.2606 233.83 73.6113 234.889 72.5002C235.948 71.3891 239.42 69.896 241.147 73.5158C242.875 77.1356 239.62 82.1356 236.894 82.995C232.189 84.4707 231.477 81.4498 231.477 81.4498L231.121 98.4203C227.068 102.952 213.205 101.893 215.818 97.9689V92.7606C215.818 92.7606 211.555 93.4116 209.481 93.0905C206.009 92.5523 203.838 89.8266 202.788 86.0766C201.104 80.061 200.462 75.2085 201.92 63.3769C203.491 50.4082 218.569 50.278 226.712 55.3995C234.854 60.521 231.738 74.7485 231.738 74.7485Z" fill="#FFC0C0"/>
<path fill-rule="evenodd" clip-rule="evenodd" d="M219.021 77.7171H219.75H219.759C222.41 77.7171 224.559 75.568 224.559 72.9168C224.559 70.2656 222.41 68.1165 219.759 68.1165H219.021C216.37 68.1165 214.221 70.2656 214.221 72.9168C214.221 75.568 216.37 77.7171 219.021 77.7171ZM215.028 72.9168C215.028 70.7115 216.816 68.9237 219.021 68.9237H219.759C221.964 68.9237 223.752 70.7115 223.752 72.9168C223.752 75.1221 221.964 76.9099 219.759 76.9099H219.021C216.816 76.9099 215.028 75.1221 215.028 72.9168Z" fill="#263238"/>
<path fill-rule="evenodd" clip-rule="evenodd" d="M204.394 77.7171H205.132C207.783 77.7171 209.932 75.568 209.932 72.9168C209.932 70.2656 207.783 68.1165 205.132 68.1165H204.394C201.743 68.1165 199.594 70.2656 199.594 72.9168C199.594 75.568 201.743 77.7171 204.394 77.7171ZM200.401 72.9168C200.401 70.7115 202.189 68.9237 204.394 68.9237H205.132C207.337 68.9237 209.125 70.7115 209.125 72.9168C209.125 75.1221 207.337 76.9099 205.132 76.9099H204.394C202.189 76.9099 200.401 75.1221 200.401 72.9168Z" fill="#263238"/>
<path d="M214.273 71.9707C213.68 71.1641 212.74 70.6848 211.739 70.6773C210.904 70.5932 210.08 70.9164 209.525 71.5453L208.883 71.0592C209.596 70.2152 210.684 69.7823 211.782 69.9047C213.052 69.9173 214.238 70.541 214.968 71.5801L214.273 71.9707Z" fill="#263238"/>
<rect x="224.108" y="71.936" width="10.2083" height="0.807292" fill="#263238"/>
<path d="M231.738 76.1981C232.172 76.1981 233.812 73.4724 234.889 72.5002C236.373 71.146 234.455 58.9064 234.455 58.9064C234.455 58.9064 235.887 55.8595 233.022 52.7172C230.991 50.4776 227.588 50.2259 221.781 49.3144C218.734 48.837 214.116 47.9776 211.069 47.4134C207.441 46.7363 204.429 46.0245 201.868 48.2814C199.808 50.067 199.095 52.9561 200.088 55.495C200.824 57.0401 202.131 58.2387 203.734 58.837C203.734 58.837 205.314 60.2432 210.826 60.9116C216.338 61.58 224.924 60.7901 226.095 60.6252C227.693 60.4081 228.031 61.9533 228.899 66.1894C229.654 69.8786 230.305 76.172 231.738 76.1981Z" fill="#263238"/>
<path d="M234.447 59.8961L239.655 57.0923C239.318 56.3848 238.706 55.8457 237.962 55.5999C237.218 55.3541 236.406 55.4228 235.714 55.7902C234.268 56.6052 233.712 58.408 234.447 59.8961Z" fill="#263238"/>
<path d="M215.827 92.8039C215.827 92.8039 223.553 91.2501 226.244 89.8178C227.831 88.9886 229.132 87.6998 229.976 86.1199C229.568 87.6938 228.848 89.1697 227.858 90.4602C225.879 92.9862 215.818 94.8438 215.818 94.8438L215.827 92.8039Z" fill="#F9A9A9"/>
<path d="M217.684 72.8214C217.717 73.672 218.429 74.3374 219.28 74.3138C220.131 74.2903 220.804 73.5865 220.79 72.7353C220.776 71.8842 220.08 71.2027 219.229 71.2068C218.81 71.2159 218.412 71.3912 218.122 71.694C217.832 71.9968 217.675 72.4024 217.684 72.8214Z" fill="#263238"/>
<path d="M220.167 66.4152L223.483 68.2381C223.947 67.3016 223.61 66.1661 222.71 65.6339C222.271 65.3912 221.752 65.3373 221.273 65.4846C220.793 65.6319 220.394 65.9678 220.167 66.4152H220.167Z" fill="#263238"/>
<path d="M216.53 83.5071L212.997 84.8352C213.151 85.3145 213.493 85.7104 213.945 85.9316C214.397 86.1527 214.92 86.18 215.393 86.0071C216.383 85.6151 216.885 84.5106 216.53 83.5071Z" fill="#F28F8F"/>
<path d="M203.483 67.7691L206.504 65.4514C206.22 65.0426 205.781 64.7677 205.289 64.6907C204.797 64.6136 204.295 64.7411 203.9 65.0434C203.055 65.6948 202.871 66.8952 203.483 67.7691Z" fill="#263238"/>
<path d="M204.811 72.3785C204.844 73.2291 205.556 73.8945 206.407 73.871C207.257 73.8474 207.931 73.1436 207.917 72.2925C207.903 71.4414 207.207 70.7598 206.356 70.7639C205.937 70.773 205.539 70.9483 205.249 71.2511C204.959 71.5539 204.802 71.9595 204.811 72.3785Z" fill="#263238"/>
<path d="M212.459 71.1372L212.285 80.5209L206.738 79.2969L212.459 71.1372Z" fill="#F9A9A9"/>
<path d="M202.98 149.149V150.017C202.979 150.921 202.496 151.755 201.713 152.205L177.607 166.094C176.825 166.545 175.862 166.545 175.081 166.094L130.853 140.564C130.07 140.114 129.587 139.28 129.586 138.377V137.76L176.339 164.748L202.98 149.149Z" fill="#BA68C8"/>
<path opacity="0.6" d="M202.98 149.149V150.017C202.979 150.921 202.496 151.755 201.713 152.205L177.607 166.094C176.825 166.545 175.862 166.545 175.081 166.094L130.853 140.564C130.07 140.114 129.587 139.28 129.586 138.377V137.76L176.339 164.748L202.98 149.149Z" fill="black"/>
<path d="M129.611 137.769L155.835 122.63C156.303 122.361 156.878 122.361 157.346 122.63L202.832 148.898C202.934 148.959 202.997 149.069 202.997 149.188C202.997 149.308 202.934 149.418 202.832 149.479L176.365 164.757L129.611 137.769Z" fill="#BA68C8"/>
<path opacity="0.5" d="M129.611 137.769L155.835 122.63C156.303 122.361 156.878 122.361 157.346 122.63L202.832 148.898C202.934 148.959 202.997 149.069 202.997 149.188C202.997 149.308 202.934 149.418 202.832 149.479L176.365 164.757L129.611 137.769Z" fill="black"/>
<path d="M176.582 162.535L190.722 154.375L149.368 130.504L135.149 138.62L176.582 162.535Z" fill="#263238"/>
<path d="M183.535 139.844L183.275 139.992L176.339 143.993L164.012 136.875L163.761 136.728L170.948 132.578L183.535 139.844Z" fill="#263238"/>
<path d="M183.275 139.992L176.339 143.993L164.013 136.875L170.948 132.874L183.275 139.992Z" fill="#263238"/>
<path opacity="0.7" d="M176.339 164.757V166.441C175.897 166.441 175.463 166.324 175.081 166.103L130.853 140.573C130.07 140.123 129.587 139.289 129.586 138.386V137.769L176.339 164.757Z" fill="black"/>
<path d="M175.618 165.13C174.766 165.47 173.805 165.396 173.014 164.931L128.987 139.514C128.212 139.07 127.677 138.302 127.528 137.422L122.71 108.672C122.683 108.511 122.669 108.349 122.667 108.186C122.662 107.387 122.974 106.619 123.535 106.051L169.29 132.474C169.878 132.797 170.289 133.368 170.41 134.028L175.618 165.13Z" fill="#BA68C8"/>
<path opacity="0.5" d="M175.618 165.13C174.766 165.47 173.805 165.396 173.014 164.931L128.987 139.514C128.212 139.07 127.677 138.302 127.528 137.422L122.71 108.672C122.683 108.511 122.669 108.349 122.667 108.186C122.662 107.387 122.974 106.619 123.535 106.051L169.29 132.474C169.878 132.797 170.289 133.368 170.41 134.028L175.618 165.13Z" fill="black"/>
<path d="M176.339 164.757L176.044 164.931C175.91 165.008 175.771 165.074 175.627 165.13L170.419 134.028C170.308 133.376 169.913 132.807 169.342 132.474L123.587 106.05C123.769 105.871 123.973 105.717 124.195 105.59L170.045 132.057C170.617 132.39 171.011 132.959 171.122 133.611L176.339 164.757Z" fill="#E0E0E0"/>
<path d="M150.827 138.594C150.506 136.675 148.518 134.115 146.391 132.891C144.265 131.667 142.798 132.222 143.127 134.149C143.457 136.077 145.436 138.629 147.563 139.861C149.69 141.094 151.157 140.521 150.827 138.594Z" fill="#BA68C8"/>
<path d="M159.846 157.309C159.754 156.064 159.513 154.834 159.126 153.646C158.449 151.519 156.435 143.325 151.834 142.092C151.287 141.928 150.706 141.91 150.15 142.04C148.874 142.387 148.292 143.716 148.041 144.905C147.806 146.662 147.806 148.443 148.041 150.2C147.333 149.391 146.505 148.697 145.584 148.143C144.768 147.528 143.784 147.177 142.763 147.136C142.475 147.121 142.198 147.252 142.025 147.483C141.86 147.787 142.025 148.169 142.286 148.438C142.746 148.993 143.31 149.462 143.77 150.018C144.13 150.502 144.464 151.006 144.768 151.528C145.35 152.466 146.001 153.351 146.652 154.245C147.903 156.103 149.472 157.725 151.287 159.037C153.375 160.45 155.744 161.395 158.232 161.806C161.591 162.222 164.855 162.17 166.973 161.433L159.846 157.309Z" fill="#FFC0C0"/>
<path d="M241.643 103.637C238.544 102.04 234.013 108.368 235.454 114.983C236.895 121.597 243.995 144.853 243.995 144.853C243.995 144.853 211.921 147.717 209.195 148.056C207.294 148.281 205.167 147.318 203.405 146.736C201.009 145.938 198.587 145.382 196.226 144.514C195.815 144.325 195.368 144.23 194.915 144.236C194.449 144.257 194.054 144.588 193.952 145.044C193.94 145.315 194.01 145.584 194.152 145.816C194.909 147.361 196.047 148.687 197.459 149.67C198.143 150.074 198.793 150.533 199.403 151.042C199.777 151.415 200.601 152.448 200.271 153.012L187.528 160.347C187.528 160.347 190.462 162.899 201.087 159.922C204.917 158.92 208.655 157.593 212.259 155.955C212.259 155.955 250.054 157.526 256.886 155.46C259.299 154.722 260.167 153.012 258.535 145.235C256.669 136.224 251.313 119.792 250.098 115.452C247.433 106.051 246.799 106.268 241.643 103.637Z" fill="#FFC0C0"/>
<path d="M240.045 102.292C240.045 102.292 245.167 103.733 247.372 106.632C249.576 109.531 258.083 137.578 258.083 137.578C253.583 141.332 247.66 142.919 241.885 141.918C241.885 141.918 235.045 122.517 234.316 117.335C233.023 109.306 236.946 102.986 240.045 102.292Z" fill="#BA68C8"/>
<path d="M212.406 121.111C211.99 118.941 213.344 117.769 215.436 118.507C217.681 119.429 219.356 121.362 219.95 123.715C220.366 125.912 212.814 123.264 212.406 121.111Z" fill="#BA68C8"/>
<path d="M226.721 127.873L220.567 123.958C220.879 125.625 218.631 125.391 216.608 124.688C214.586 123.984 212.112 122.561 211.791 120.894L206.426 120.825C205.931 120.825 205.923 121.467 206.426 121.997C207.754 123.481 210.845 126.111 217.338 128.377C223.831 130.642 226.322 129.939 227.259 129.245C227.563 128.984 227.285 128.229 226.721 127.873Z" fill="#BA68C8"/>
</svg>
