<svg width="170" height="86" viewBox="0 0 170 86" fill="none" xmlns="http://www.w3.org/2000/svg">
<path d="M72.6889 42.9718C69.96 43.1804 67.6155 42.9324 65.6553 42.2279C63.6952 41.5233 62.1489 40.257 61.0165 38.4289C59.8819 36.5753 59.1779 34.0558 58.9044 30.8704C58.666 28.0927 58.9063 25.659 59.6254 23.5692C60.37 21.4773 61.5617 19.8091 63.2005 18.5646C64.8371 17.2946 66.9168 16.5513 69.4397 16.3347C71.6567 16.1444 73.6208 16.2967 75.3319 16.7916C77.043 17.2865 78.4214 18.0923 79.467 19.2091C80.536 20.2982 81.1915 21.6538 81.4334 23.276C81.6688 24.8217 81.5172 26.1953 80.9785 27.3967C80.4654 28.596 79.6355 29.6941 78.4888 30.691C79.3939 30.7673 80.2392 31.1953 81.025 31.975C81.8362 32.7525 82.2932 33.7401 82.396 34.9378C82.466 35.7533 82.3714 36.5957 82.1123 37.4651C81.8533 38.3345 81.3593 39.1599 80.6306 39.9412C79.9274 40.7204 78.919 41.3845 77.6056 41.9337C76.3155 42.4551 74.6766 42.8012 72.6889 42.9718ZM68.8275 28.9404C69.3823 29.1238 70.0292 29.1838 70.7682 29.1203C71.5051 29.0314 72.1374 28.7718 72.6652 28.3414C73.2185 27.9088 73.4612 27.2976 73.3934 26.5076C73.3431 25.9215 73.1243 25.4653 72.7369 25.1392C72.375 24.8109 71.9337 24.6049 71.4131 24.5212C70.8903 24.4121 70.3624 24.3932 69.8295 24.4646C69.2965 24.536 68.8477 24.6901 68.4829 24.9268C68.0184 25.1977 67.7211 25.6211 67.5908 26.1971C67.486 26.7708 67.5342 27.3314 67.7352 27.8789C67.9595 28.3988 68.3236 28.7526 68.8275 28.9404ZM69.5953 37.885C70.1479 38.0429 70.7938 38.0902 71.5328 38.0267C72.2696 37.9378 72.9041 37.7036 73.4363 37.3242C73.994 36.9426 74.2433 36.4078 74.1842 35.7198C74.1405 35.2101 73.9271 34.8177 73.5441 34.5425C73.1843 34.2397 72.7442 34.0464 72.2236 33.9627C71.703 33.8791 71.1773 33.8857 70.6465 33.9826C70.1136 34.054 69.6625 34.1826 69.2934 34.3683C68.8267 34.6137 68.525 34.9862 68.3881 35.4857C68.2768 35.983 68.3184 36.4672 68.5128 36.9382C68.7328 37.4071 69.0936 37.7227 69.5953 37.885Z" fill="#54A312"/>
<path d="M91.8771 41.4017C89.9936 41.5891 88.3043 41.349 86.8095 40.6815C85.3379 39.9864 84.1353 38.9857 83.2017 37.6797C82.2914 36.3459 81.7386 34.8402 81.5433 33.1627C81.369 31.4321 81.6328 29.8692 82.3345 28.474C83.034 27.0534 84.0761 25.8858 85.4609 24.9711C86.8456 24.0564 88.4681 23.5193 90.3284 23.3596C92.161 23.1766 93.812 23.4199 95.2814 24.0896C96.7762 24.7571 98.0021 25.73 98.959 27.0085C99.9159 28.2869 100.494 29.7903 100.694 31.5188C100.862 33.173 100.597 34.7232 99.8994 36.1693C99.1999 37.5899 98.1588 38.7703 96.7763 39.7104C95.3916 40.6251 93.7585 41.1889 91.8771 41.4017ZM91.5127 35.811C92.2008 35.752 92.7767 35.433 93.2404 34.8541C93.7041 34.2752 93.9054 33.629 93.8441 32.9154C93.7829 32.2019 93.4755 31.6122 92.9221 31.1463C92.3665 30.6549 91.7447 30.4387 91.0566 30.4978C90.3686 30.5568 89.7927 30.8758 89.329 31.4547C88.8631 32.0081 88.6607 32.6416 88.722 33.3551C88.7832 34.0687 89.0917 34.6711 89.6473 35.1625C90.2029 35.6539 90.8247 35.8701 91.5127 35.811Z" fill="#54A312"/>
<path d="M111.684 39.663C109.849 39.8205 108.285 39.698 106.993 39.2955C105.698 38.8675 104.607 38.2681 103.72 37.4971C102.857 36.724 102.154 35.8602 101.61 34.9057C101.092 33.9491 100.689 32.9953 100.402 32.0445C100.115 31.0936 99.9122 30.2254 99.7934 29.4398C99.7001 28.652 99.6371 28.0669 99.6043 27.6847C99.5037 26.5125 99.4624 25.2838 99.4804 23.9987C99.4984 22.7136 99.5962 21.4602 99.7737 20.2384C99.949 18.9911 100.224 17.8636 100.6 16.8559C101.001 15.846 101.508 15.0195 102.12 14.3765C102.732 13.7335 103.497 13.3727 104.414 13.2939C105.23 13.2239 105.992 13.4281 106.7 13.9063C107.434 14.3824 107.85 15.1811 107.946 16.3024C108.04 17.3981 107.954 18.4965 107.69 19.5974C107.448 20.6706 107.323 21.7595 107.315 22.8641C107.873 22.4825 108.478 22.1995 109.129 22.0152C109.779 21.8055 110.422 21.6732 111.059 21.6185C112.41 21.5026 113.737 21.7096 115.04 22.2395C116.341 22.7439 117.441 23.5993 118.341 24.8056C119.266 26.0098 119.813 27.6057 119.984 29.5934C120.117 31.1479 119.876 32.6704 119.259 34.1608C118.668 35.6492 117.723 36.8983 116.424 37.9084C115.15 38.9162 113.57 39.5011 111.684 39.663ZM110.936 33.6431C111.624 33.5841 112.201 33.2778 112.667 32.7244C113.156 32.1433 113.37 31.496 113.309 30.7825C113.248 30.069 112.927 29.4676 112.345 28.9784C111.79 28.487 111.168 28.2708 110.48 28.3299C109.792 28.3889 109.216 28.7079 108.752 29.2868C108.289 29.8657 108.087 30.5119 108.149 31.2255C108.21 31.939 108.518 32.5415 109.074 33.0328C109.627 33.4988 110.248 33.7022 110.936 33.6431Z" fill="#54A312"/>
<path d="M129.602 38.1634C127.718 38.3507 126.029 38.1107 124.534 37.4432C123.062 36.748 121.86 35.7474 120.926 34.4413C120.016 33.1076 119.463 31.6019 119.268 29.9244C119.094 28.1937 119.357 26.6308 120.059 25.2357C120.759 23.8151 121.801 22.6475 123.185 21.7328C124.57 20.8181 126.193 20.2809 128.053 20.1213C129.886 19.9383 131.537 20.1816 133.006 20.8513C134.501 21.5188 135.727 22.4917 136.684 23.7701C137.641 25.0486 138.219 26.552 138.419 28.2805C138.586 29.9347 138.321 31.4849 137.624 32.931C136.924 34.3516 135.883 35.532 134.501 36.4721C133.116 37.3868 131.483 37.9505 129.602 38.1634ZM129.237 32.5727C129.925 32.5136 130.501 32.1947 130.965 31.6158C131.429 31.0369 131.63 30.3907 131.569 29.6771C131.507 28.9636 131.2 28.3739 130.647 27.908C130.091 27.4166 129.469 27.2004 128.781 27.2595C128.093 27.3185 127.517 27.6375 127.054 28.2164C126.588 28.7698 126.385 29.4033 126.447 30.1168C126.508 30.8303 126.816 31.4328 127.372 31.9242C127.927 32.4156 128.549 32.6318 129.237 32.5727Z" fill="#54A312"/>
<path d="M69.4525 72.7137C68.2802 72.8143 67.1993 72.4836 66.2097 71.7214C65.2434 70.9315 64.4245 69.6156 63.753 67.7735C63.1069 65.9293 62.6538 63.491 62.3934 60.4585C62.2162 58.3944 62.3857 56.4802 62.9017 54.7159C63.4177 52.9517 64.2093 51.4076 65.2765 50.0838C66.3415 48.7345 67.6229 47.6619 69.1205 46.8658C70.6159 46.0444 72.2428 45.5582 74.0011 45.4072C76.9571 45.1535 79.2179 45.4728 80.7835 46.3653C82.3723 47.2301 83.2422 48.5416 83.3931 50.3C83.5069 51.6251 83.2725 52.6335 82.6901 53.3253C82.131 53.9894 81.2869 54.4726 80.1576 54.7749C79.0539 55.075 77.7375 55.2907 76.2085 55.4219C75.3421 55.4963 74.5248 55.6948 73.7567 56.0175C72.9864 56.3146 72.3672 56.7272 71.8991 57.2551C71.4543 57.7554 71.2232 58.3528 71.2058 59.0474C71.2168 59.1748 71.2139 59.2906 71.1971 59.3947C71.6536 59.3299 72.1112 59.2778 72.5699 59.2384C73.0286 59.199 73.4873 59.1596 73.946 59.1203C75.0673 59.024 76.1642 58.9427 77.2366 58.8763C78.3324 58.7822 79.3339 58.7861 80.2411 58.8879C81.1462 58.9643 81.886 59.2088 82.4605 59.6216C83.035 60.0343 83.3606 60.6867 83.4371 61.5786C83.5202 62.5469 83.315 63.2962 82.8214 63.8263C82.3257 64.3309 81.6384 64.698 80.7596 64.9274C79.8808 65.1569 78.8935 65.3187 77.7977 65.4127C76.7253 65.4791 75.6284 65.5604 74.5071 65.6567C74.0994 65.6917 73.6928 65.7394 73.2872 65.7999C72.905 65.8327 72.51 65.8666 72.1022 65.9016C72.1838 66.254 72.2538 66.6203 72.3121 67.0003C72.3704 67.3804 72.417 67.7743 72.452 68.182C72.5133 68.8955 72.4704 69.5923 72.3234 70.2724C72.1997 70.9248 71.9133 71.4756 71.4641 71.9249C71.0149 72.3742 70.3444 72.6371 69.4525 72.7137Z" fill="#54A312"/>
<path d="M94.7701 70.6174C92.8865 70.8048 91.1973 70.5647 89.7024 69.8972C88.2309 69.2021 87.0283 68.2015 86.0947 66.8954C85.1844 65.5616 84.6316 64.056 84.4363 62.3785C84.262 60.6478 84.5258 59.0849 85.2275 57.6898C85.927 56.2692 86.9691 55.1015 88.3539 54.1868C89.7386 53.2722 91.3611 52.735 93.2214 52.5753C95.054 52.3923 96.705 52.6357 98.1744 53.3053C99.6692 53.9728 100.895 54.9458 101.852 56.2242C102.809 57.5026 103.387 59.0061 103.587 60.7345C103.755 62.3888 103.49 63.9389 102.792 65.385C102.093 66.8056 101.052 67.986 99.6693 68.9262C98.2846 69.8408 96.6515 70.4046 94.7701 70.6174ZM94.4057 65.0268C95.0938 64.9677 95.6697 64.6487 96.1334 64.0698C96.5971 63.4909 96.7983 62.8447 96.7371 62.1312C96.6758 61.4176 96.3685 60.8279 95.8151 60.362C95.2595 59.8706 94.6377 59.6544 93.9496 59.7135C93.2616 59.7726 92.6857 60.0916 92.222 60.6705C91.7561 61.2239 91.5537 61.8573 91.615 62.5709C91.6762 63.2844 91.9847 63.8869 92.5403 64.3783C93.0959 64.8697 93.7177 65.0858 94.4057 65.0268Z" fill="#54A312"/>
<path d="M113.166 69.0383C111.282 69.2257 109.593 68.9856 108.098 68.3181C106.627 67.623 105.424 66.6224 104.49 65.3163C103.58 63.9825 103.027 62.4769 102.832 60.7994C102.658 59.0687 102.921 57.5058 103.623 56.1107C104.323 54.69 105.365 53.5224 106.75 52.6077C108.134 51.6931 109.757 51.1559 111.617 50.9962C113.45 50.8132 115.101 51.0566 116.57 51.7262C118.065 52.3937 119.291 53.3667 120.248 54.6451C121.205 55.9235 121.783 57.427 121.983 59.1554C122.15 60.8097 121.885 62.3598 121.188 63.8059C120.489 65.2265 119.448 66.4069 118.065 67.3471C116.68 68.2617 115.047 68.8255 113.166 69.0383ZM112.801 63.4477C113.489 63.3886 114.065 63.0696 114.529 62.4907C114.993 61.9118 115.194 61.2656 115.133 60.5521C115.072 59.8385 114.764 59.2488 114.211 58.7829C113.655 58.2915 113.033 58.0753 112.345 58.1344C111.657 58.1935 111.081 58.5124 110.618 59.0913C110.152 59.6448 109.949 60.2782 110.011 60.9918C110.072 61.7053 110.38 62.3078 110.936 62.7992C111.492 63.2905 112.113 63.5067 112.801 63.4477Z" fill="#54A312"/>
<path d="M131.1 67.4604C129.214 67.6222 127.545 67.3163 126.092 66.5425C124.665 65.7665 123.52 64.6967 122.659 63.3331C121.823 61.9673 121.338 60.5071 121.205 58.9527C121.034 56.965 121.289 55.3001 121.97 53.9582C122.676 52.614 123.627 51.5825 124.823 50.8638C126.017 50.1195 127.289 49.6894 128.64 49.5734C129.277 49.5188 129.933 49.5394 130.609 49.6355C131.283 49.706 131.927 49.8817 132.541 50.1627C132.345 49.0757 132.024 48.0251 131.577 47.0109C131.154 45.969 130.896 44.9002 130.802 43.8044C130.705 42.6832 130.978 41.8254 131.62 41.2312C132.263 40.637 132.979 40.306 133.769 40.2382C134.686 40.1595 135.501 40.3847 136.214 40.9139C136.927 41.4432 137.554 42.1723 138.096 43.1013C138.663 44.0281 139.14 45.091 139.525 46.2902C139.908 47.4638 140.218 48.6823 140.455 49.9455C140.692 51.2087 140.86 52.4264 140.961 53.5987C140.994 53.9809 141.019 54.5692 141.035 55.3636C141.078 56.1557 141.039 57.0447 140.918 58.0306C140.797 59.0165 140.55 60.026 140.177 61.0592C139.829 62.0903 139.283 63.0612 138.54 63.9722C137.822 64.881 136.862 65.6565 135.659 66.2988C134.454 66.9157 132.934 67.3029 131.1 67.4604ZM130.81 61.4012C131.498 61.3421 132.075 61.0359 132.541 60.4824C133.005 59.9035 133.206 59.2573 133.145 58.5438C133.084 57.8303 132.775 57.2278 132.22 56.7364C131.664 56.245 131.042 56.0288 130.354 56.0879C129.666 56.147 129.078 56.467 128.588 57.0481C128.125 57.627 127.923 58.2732 127.985 58.9868C128.046 59.7003 128.354 60.3028 128.91 60.7942C129.489 61.2579 130.122 61.4602 130.81 61.4012Z" fill="#54A312"/>
<path d="M167.458 36.3325C167.558 37.4963 167.237 38.3858 166.497 39.001C165.788 39.5791 164.738 39.9968 163.346 40.2542C161.955 40.5116 160.301 40.7225 158.384 40.8871C158.514 42.8068 158.537 44.4772 158.452 45.8982C158.401 47.3163 158.119 48.4439 157.604 49.2811C157.121 50.0812 156.315 50.5297 155.186 50.6266C154.022 50.7265 153.134 50.4235 152.521 49.7174C151.943 49.0085 151.526 47.9582 151.268 46.5666C151.011 45.1749 150.798 43.5036 150.631 41.5526C148.68 41.7201 146.997 41.7956 145.582 41.7791C144.164 41.7284 143.056 41.4787 142.259 41.0299C141.459 40.5469 141.01 39.7406 140.913 38.6111C140.769 36.9339 141.5 35.8023 143.105 35.2163C144.741 34.5931 147.028 34.1209 149.965 33.7998C149.798 31.8487 149.722 30.1657 149.739 28.7505C149.79 27.3325 150.039 26.2249 150.488 25.4278C150.971 24.6277 151.777 24.1792 152.907 24.0823C154.584 23.9383 155.717 24.6858 156.306 26.3248C156.929 27.9609 157.4 30.2307 157.718 33.1343C159.638 33.004 161.308 32.9812 162.729 33.0662C164.147 33.1168 165.258 33.4008 166.061 33.918C166.895 34.3981 167.361 35.2029 167.458 36.3325Z" fill="#54A312"/>
<g clip-path="url(#clip0_18_4302)">
<path d="M55.6658 57.4535C55.5817 61.1529 54.1541 64.6954 51.6494 67.4193C49.1447 70.1432 45.7343 71.8624 42.0548 72.2558L24.7566 74.0752C21.1389 74.4512 17.5061 73.5191 14.5162 71.4478C11.5264 69.3765 9.37723 66.303 8.45798 62.7838C8.65543 62.8111 8.8424 62.8636 9.04497 62.8773C12.2196 63.0834 15.2769 64.1562 17.8842 65.9789C19.6825 67.2535 21.8834 67.8293 24.0754 67.5988C26.2674 67.3682 28.3004 66.3471 29.7941 64.7263C32.6536 61.6621 36.5234 59.7334 40.6916 59.2951L53.6653 57.9306C54.3487 57.8518 55.0203 57.6916 55.6658 57.4535ZM5.20687 54.4881C5.30838 55.5395 5.77703 56.5216 6.53054 57.2619C7.28405 58.0023 8.27426 58.4535 9.32734 58.5364C13.2948 58.7953 17.1154 60.1371 20.3734 62.416C21.3167 63.0831 22.4704 63.3843 23.6194 63.2635C24.7684 63.1426 25.8342 62.6079 26.6181 61.7592C30.1917 57.9297 35.0277 55.5191 40.2368 54.9706L53.2104 53.606C54.3574 53.4854 55.4094 52.9141 56.1351 52.0178C56.8608 51.1215 57.2008 49.9736 57.0801 48.8266C56.9595 47.6797 56.3882 46.6276 55.4919 45.9019C54.5956 45.1762 53.4477 44.8363 52.3007 44.9569L9.25844 49.4841C8.05759 49.6104 6.9561 50.2085 6.19628 51.147C5.43647 52.0854 5.08056 53.2872 5.20687 54.4881ZM54.0068 40.392L54.0405 40.712C53.3153 40.5924 52.5778 40.5657 51.8459 40.6324L8.80359 45.1595C8.00338 45.2556 7.22023 45.4616 6.47627 45.7716L6.4367 45.3953C5.84003 39.6619 7.54207 33.9259 11.1694 29.4458C14.7967 24.9658 20.0531 22.1076 25.7852 21.4983L30.1098 21.0434C35.8432 20.4468 41.5792 22.1488 46.0593 25.7762C50.5393 29.4035 53.3975 34.6598 54.0068 40.392ZM18.7281 37.5439C18.6678 36.9705 18.3821 36.4445 17.934 36.0816C17.4858 35.7187 16.9119 35.5488 16.3384 35.6091C15.7649 35.6694 15.2389 35.9551 14.876 36.4032C14.5132 36.8514 14.3432 37.4253 14.4035 37.9988C14.4638 38.5723 14.7495 39.0983 15.1977 39.4611C15.6458 39.824 16.2198 39.994 16.7932 39.9336C17.3667 39.8733 17.8927 39.5877 18.2556 39.1395C18.6184 38.6914 18.7884 38.1174 18.7281 37.5439ZM24.5326 30.3748C24.4723 29.8014 24.1867 29.2753 23.7385 28.9125C23.2903 28.5496 22.7164 28.3797 22.1429 28.44C21.5695 28.5003 21.0434 28.786 20.6806 29.2341C20.3177 29.6823 20.1478 30.2562 20.2081 30.8297C20.2684 31.4032 20.5541 31.9292 21.0022 32.292C21.4504 32.6549 22.0243 32.8249 22.5978 32.7645C23.1713 32.7042 23.6973 32.4186 24.0601 31.9704C24.423 31.5223 24.593 30.9483 24.5326 30.3748Z" fill="#54A312"/>
</g>
<defs>
<clipPath id="clip0_18_4302">
<rect width="52.1809" height="52.1809" fill="white" transform="translate(2 24) rotate(-6.00422)"/>
</clipPath>
</defs>
</svg>
