<svg width="24" height="24" viewBox="0 0 24 24" fill="none" xmlns="http://www.w3.org/2000/svg">
<path d="M19.4976 7.20155L12.5024 3.13551C12.3496 3.04674 12.1763 3 12 3C11.8236 3 11.6503 3.04674 11.4976 3.13551L4.50238 7.20155C4.34955 7.29038 4.22264 7.41817 4.13445 7.57205C4.04626 7.72594 3.99989 7.90049 4 8.07815V16.2082C3.99989 16.3859 4.04626 16.5604 4.13445 16.7143C4.22264 16.8682 4.34955 16.996 4.50238 17.0848L11.4976 21.1509C11.6503 21.2396 11.8236 21.2864 12 21.2864C12.1763 21.2864 12.3496 21.2396 12.5024 21.1509L19.4976 17.0848C19.6504 16.996 19.7773 16.8682 19.8655 16.7143C19.9537 16.5604 20.0001 16.3859 19.9999 16.2082V8.07747C19.9999 7.89993 19.9535 7.72552 19.8653 7.57176C19.7771 7.41801 19.6503 7.29033 19.4976 7.20155Z" fill="#3A94E7"/>
<path d="M12.5024 21.1502L19.4976 17.0842C19.6504 16.9953 19.7773 16.8675 19.8655 16.7137C19.9537 16.5598 20.0001 16.3852 20 16.2076V8.0775C20.0001 7.89984 19.9537 7.72529 19.8655 7.5714C19.7773 7.41752 19.6504 7.28974 19.4976 7.20091L12.5024 3.13486C12.3496 3.04631 12.1763 2.9998 12 3V21.2857C12.1764 21.2857 12.3496 21.239 12.5024 21.1502Z" fill="#2A7DF3"/>
<path d="M15.3491 11.5818L12.8379 7.78955C12.7459 7.65072 12.6213 7.53693 12.4751 7.45834C12.3289 7.37975 12.1656 7.33879 11.9999 7.33911C11.8345 7.33913 11.6716 7.38024 11.5258 7.45882C11.38 7.5374 11.2557 7.651 11.1639 7.78955L8.65066 11.5818C8.54064 11.748 8.48193 11.9432 8.48193 12.1428C8.48193 12.3425 8.54064 12.5377 8.65066 12.7039L11.1619 16.4961C11.2539 16.635 11.3785 16.7488 11.5247 16.8273C11.6709 16.9059 11.8341 16.9469 11.9999 16.9466C12.1653 16.9466 12.3281 16.9054 12.474 16.8269C12.6198 16.7483 12.7441 16.6347 12.8359 16.4961L15.3491 12.7039C15.4591 12.5377 15.5179 12.3425 15.5179 12.1428C15.5179 11.9432 15.4591 11.748 15.3491 11.5818Z" fill="#D0EFFF"/>
<path d="M12 16.9466C12.1654 16.9466 12.3283 16.9054 12.4741 16.8269C12.6199 16.7483 12.7442 16.6347 12.836 16.4961L15.3492 12.7039C15.4592 12.5377 15.518 12.3425 15.518 12.1428C15.518 11.9432 15.4592 11.748 15.3492 11.5818L12.838 7.78955C12.746 7.65072 12.6214 7.53693 12.4752 7.45834C12.329 7.37975 12.1657 7.33879 12 7.33911V16.9466Z" fill="#8AC7FF"/>
</svg>
