<svg width="24" height="24" viewBox="0 0 24 24" fill="none" xmlns="http://www.w3.org/2000/svg">
<path d="M12 19.75C11.2 19.1167 10.3333 18.625 9.4 18.275C8.46667 17.925 7.5 17.75 6.5 17.75C5.8 17.75 5.1125 17.8417 4.4375 18.025C3.7625 18.2083 3.11667 18.4667 2.5 18.8C2.15 18.9833 1.8125 18.975 1.4875 18.775C1.1625 18.575 1 18.2833 1 17.9V5.85C1 5.66667 1.04583 5.49167 1.1375 5.325C1.22917 5.15833 1.36667 5.03333 1.55 4.95C2.31667 4.55 3.11667 4.25 3.95 4.05C4.78333 3.85 5.63333 3.75 6.5 3.75C7.46667 3.75 8.4125 3.875 9.3375 4.125C10.2625 4.375 11.15 4.75 12 5.25V17.35C12.85 16.8167 13.7417 16.4167 14.675 16.15C15.6083 15.8833 16.55 15.75 17.5 15.75C18.1 15.75 18.6875 15.8 19.2625 15.9C19.8375 16 20.4167 16.15 21 16.35V16.35V16.35V4.35C21.25 4.43333 21.4958 4.52083 21.7375 4.6125C21.9792 4.70417 22.2167 4.81667 22.45 4.95C22.6333 5.03333 22.7708 5.15833 22.8625 5.325C22.9542 5.49167 23 5.66667 23 5.85V17.9C23 18.2833 22.8375 18.575 22.5125 18.775C22.1875 18.975 21.85 18.9833 21.5 18.8C20.8833 18.4667 20.2375 18.2083 19.5625 18.025C18.8875 17.8417 18.2 17.75 17.5 17.75C16.5 17.75 15.5333 17.925 14.6 18.275C13.6667 18.625 12.8 19.1167 12 19.75V19.75M14 14.75V5.25L19 0.25V10.25L14 14.75V14.75M10 16.375V6.475C9.45 6.24167 8.87917 6.0625 8.2875 5.9375C7.69583 5.8125 7.1 5.75 6.5 5.75C5.88333 5.75 5.28333 5.80833 4.7 5.925C4.11667 6.04167 3.55 6.21667 3 6.45V6.45V6.45V16.375V16.375V16.375C3.58333 16.1583 4.1625 16 4.7375 15.9C5.3125 15.8 5.9 15.75 6.5 15.75C7.1 15.75 7.6875 15.8 8.2625 15.9C8.8375 16 9.41667 16.1583 10 16.375V16.375M10 16.375V16.375V16.375V16.375V16.375V16.375V16.375V6.475V6.475V6.475V6.475V6.475V6.475V6.475V16.375V16.375" fill="#1B1B1E" fill-opacity="0.6"/>
</svg>
