<svg width="36" height="36" viewBox="0 0 36 36" fill="none" xmlns="http://www.w3.org/2000/svg">
<rect width="36" height="36" rx="18" fill="#FFD7F7"/>
<path d="M13.0002 26.3333C12.5418 26.3333 12.1495 26.1701 11.8231 25.8437C11.4967 25.5174 11.3335 25.125 11.3335 24.6667V11.3333C11.3335 10.875 11.4967 10.4826 11.8231 10.1562C12.1495 9.82986 12.5418 9.66666 13.0002 9.66666H23.0002C23.4585 9.66666 23.8509 9.82986 24.1772 10.1562C24.5036 10.4826 24.6668 10.875 24.6668 11.3333V24.6667C24.6668 25.125 24.5036 25.5174 24.1772 25.8437C23.8509 26.1701 23.4585 26.3333 23.0002 26.3333H13.0002V26.3333M17.1668 17.1667L19.2502 15.9167L21.3335 17.1667V11.3333H17.1668V17.1667V17.1667" fill="#A20EA5"/>
</svg>
