<svg width="44" height="44" viewBox="0 0 44 44" fill="none" xmlns="http://www.w3.org/2000/svg">
<rect width="44" height="44" rx="22" fill="#700B72" fill-opacity="0.05"/>
<path d="M16.4998 31.625C15.9957 31.625 15.5641 31.4455 15.205 31.0865C14.846 30.7274 14.6665 30.2958 14.6665 29.7917V20.625C14.6665 20.1208 14.846 19.6892 15.205 19.3302C15.5641 18.9712 15.9957 18.7917 16.4998 18.7917H17.4165V16.9583C17.4165 15.6903 17.8634 14.6094 18.7571 13.7156C19.6509 12.8219 20.7318 12.375 21.9998 12.375C23.2679 12.375 24.3488 12.8219 25.2425 13.7156C26.1363 14.6094 26.5832 15.6903 26.5832 16.9583V18.7917H27.4998C28.004 18.7917 28.4356 18.9712 28.7946 19.3302C29.1537 19.6892 29.3332 20.1208 29.3332 20.625V29.7917C29.3332 30.2958 29.1537 30.7274 28.7946 31.0865C28.4356 31.4455 28.004 31.625 27.4998 31.625H16.4998V31.625M16.4998 29.7917H27.4998V29.7917V29.7917V20.625V20.625V20.625H16.4998V20.625V20.625V29.7917V29.7917V29.7917V29.7917M21.9998 27.0417C22.504 27.0417 22.9356 26.8622 23.2946 26.5031C23.6537 26.1441 23.8332 25.7125 23.8332 25.2083C23.8332 24.7042 23.6537 24.2726 23.2946 23.9135C22.9356 23.5545 22.504 23.375 21.9998 23.375C21.4957 23.375 21.0641 23.5545 20.705 23.9135C20.346 24.2726 20.1665 24.7042 20.1665 25.2083C20.1665 25.7125 20.346 26.1441 20.705 26.5031C21.0641 26.8622 21.4957 27.0417 21.9998 27.0417V27.0417M19.2498 18.7917H24.7498V16.9583C24.7498 16.1944 24.4825 15.5451 23.9478 15.0104C23.413 14.4757 22.7637 14.2083 21.9998 14.2083C21.2359 14.2083 20.5866 14.4757 20.0519 15.0104C19.5172 15.5451 19.2498 16.1944 19.2498 16.9583V18.7917V18.7917M16.4998 29.7917V29.7917V29.7917V20.625V20.625V20.625V20.625V20.625V20.625V29.7917V29.7917V29.7917V29.7917V29.7917" fill="#700B72"/>
</svg>
