<svg width="44" height="44" viewBox="0 0 44 44" fill="none" xmlns="http://www.w3.org/2000/svg">
<rect width="44" height="44" rx="22" fill="#FFDAD6" fill-opacity="0.2"/>
<path d="M15.5833 30.25C15.0792 30.25 14.6476 30.0705 14.2885 29.7115C13.9295 29.3524 13.75 28.9208 13.75 28.4167V15.5833C13.75 15.0792 13.9295 14.6476 14.2885 14.2885C14.6476 13.9295 15.0792 13.75 15.5833 13.75H22V15.5833H15.5833V15.5833V15.5833V28.4167V28.4167V28.4167H22V30.25H15.5833V30.25M25.6667 26.5833L24.4062 25.2542L26.7437 22.9167H19.25V21.0833H26.7437L24.4062 18.7458L25.6667 17.4167L30.25 22L25.6667 26.5833V26.5833" fill="#BA1A1A"/>
</svg>
