<svg width="25" height="25" viewBox="0 0 25 25" fill="none" xmlns="http://www.w3.org/2000/svg">
<g opacity="0.3">
<path fill-rule="evenodd" clip-rule="evenodd" d="M20.8364 1.8146C20.5699 1.54812 20.1379 1.54812 19.8714 1.8146L9.76588 11.9201C9.67843 12.0076 9.61639 12.1172 9.5864 12.2371L8.96998 14.7028C8.84504 15.2026 9.29772 15.6552 9.79748 15.5303L12.2631 14.9139C12.3831 14.8839 12.4927 14.8218 12.5801 14.7344L22.6857 4.62886C22.9521 4.36238 22.9521 3.93033 22.6857 3.66385L20.8364 1.8146ZM18.9064 0.849585C19.7058 0.0501395 21.002 0.0501375 21.8014 0.849584L23.6507 2.69883C24.4501 3.49828 24.4501 4.79443 23.6507 5.59388L13.5452 15.6994C13.2828 15.9618 12.9541 16.1479 12.5941 16.2379L10.1285 16.8543C8.62921 17.2291 7.27118 15.8711 7.64599 14.3718L8.26241 11.9061C8.35239 11.5462 8.53851 11.2175 8.80087 10.9551L18.9064 0.849585Z" fill="black" stroke="black" stroke-width="0.5" stroke-linecap="round"/>
<path fill-rule="evenodd" clip-rule="evenodd" d="M0.25 3.09643C0.25 1.96584 1.16652 1.04932 2.29711 1.04932H11.8503C12.2271 1.04932 12.5326 1.35482 12.5326 1.73169C12.5326 2.10855 12.2271 2.41406 11.8503 2.41406H2.29711C1.92025 2.41406 1.61474 2.71956 1.61474 3.09643V22.2028C1.61474 22.5796 1.92025 22.8851 2.29711 22.8851H21.4034C21.7803 22.8851 22.0858 22.5796 22.0858 22.2028V12.6496C22.0858 12.2727 22.3913 11.9672 22.7682 11.9672C23.145 11.9672 23.4505 12.2727 23.4505 12.6496V22.2028C23.4505 23.3334 22.534 24.2499 21.4034 24.2499H2.29711C1.16652 24.2499 0.25 23.3334 0.25 22.2028V3.09643Z" fill="black" stroke="black" stroke-width="0.5" stroke-linecap="round"/>
</g>
</svg>
