<svg width="44" height="44" viewBox="0 0 44 44" fill="none" xmlns="http://www.w3.org/2000/svg">
<rect width="44" height="44" rx="22" fill="#700B72" fill-opacity="0.05"/>
<path d="M14.6665 28.4167V26.5833H16.4998V20.1667C16.4998 18.8986 16.8818 17.7719 17.6457 16.7865C18.4096 15.801 19.4026 15.1556 20.6248 14.85V14.2083C20.6248 13.8264 20.7585 13.5017 21.0259 13.2344C21.2932 12.967 21.6179 12.8333 21.9998 12.8333C22.3818 12.8333 22.7064 12.967 22.9738 13.2344C23.2412 13.5017 23.3748 13.8264 23.3748 14.2083V14.85C24.5971 15.1556 25.5901 15.801 26.354 16.7865C27.1179 17.7719 27.4998 18.8986 27.4998 20.1667V26.5833H29.3332V28.4167H14.6665V28.4167M21.9998 21.5417V21.5417V21.5417V21.5417V21.5417V21.5417V21.5417V21.5417V21.5417M21.9998 31.1667C21.4957 31.1667 21.0641 30.9872 20.705 30.6281C20.346 30.2691 20.1665 29.8375 20.1665 29.3333H23.8332C23.8332 29.8375 23.6537 30.2691 23.2946 30.6281C22.9356 30.9872 22.504 31.1667 21.9998 31.1667V31.1667M18.3332 26.5833H25.6665V20.1667C25.6665 19.1583 25.3075 18.2951 24.5894 17.5771C23.8714 16.859 23.0082 16.5 21.9998 16.5C20.9915 16.5 20.1283 16.859 19.4103 17.5771C18.6922 18.2951 18.3332 19.1583 18.3332 20.1667V26.5833V26.5833" fill="#700B72"/>
</svg>
