<svg width="120" height="120" viewBox="0 0 120 120" fill="none" xmlns="http://www.w3.org/2000/svg">
<rect x="12" y="2" width="96" height="96" rx="48" fill="#FCC7F4"/>
<g filter="url(#filter0_dd_193_152)">
<rect x="12" y="2" width="96" height="96" rx="48" fill="white" fill-opacity="0.01" shape-rendering="crispEdges"/>
</g>
<path d="M55.35 52.4L57.1 46.7L52.5 43H58.2L60 37.4L61.8 43H67.5L62.85 46.7L64.6 52.4L60 48.85L55.35 52.4V52.4M48 71V55.55C46.7333 54.15 45.75 52.55 45.05 50.75C44.35 48.95 44 47.0333 44 45C44 40.5333 45.55 36.75 48.65 33.65C51.75 30.55 55.5333 29 60 29C64.4667 29 68.25 30.55 71.35 33.65C74.45 36.75 76 40.5333 76 45C76 47.0333 75.65 48.95 74.95 50.75C74.25 52.55 73.2667 54.15 72 55.55V71L60 67L48 71V71M60 57C63.3333 57 66.1667 55.8333 68.5 53.5C70.8333 51.1667 72 48.3333 72 45C72 41.6667 70.8333 38.8333 68.5 36.5C66.1667 34.1667 63.3333 33 60 33C56.6667 33 53.8333 34.1667 51.5 36.5C49.1667 38.8333 48 41.6667 48 45C48 48.3333 49.1667 51.1667 51.5 53.5C53.8333 55.8333 56.6667 57 60 57V57" fill="#700B72"/>
<defs>
<filter id="filter0_dd_193_152" x="0" y="0" width="120" height="120" filterUnits="userSpaceOnUse" color-interpolation-filters="sRGB">
<feFlood flood-opacity="0" result="BackgroundImageFix"/>
<feColorMatrix in="SourceAlpha" type="matrix" values="0 0 0 0 0 0 0 0 0 0 0 0 0 0 0 0 0 0 127 0" result="hardAlpha"/>
<feMorphology radius="4" operator="erode" in="SourceAlpha" result="effect1_dropShadow_193_152"/>
<feOffset dy="4"/>
<feGaussianBlur stdDeviation="3"/>
<feComposite in2="hardAlpha" operator="out"/>
<feColorMatrix type="matrix" values="0 0 0 0 0.54902 0 0 0 0 0.172549 0 0 0 0 0.54902 0 0 0 0.1 0"/>
<feBlend mode="normal" in2="BackgroundImageFix" result="effect1_dropShadow_193_152"/>
<feColorMatrix in="SourceAlpha" type="matrix" values="0 0 0 0 0 0 0 0 0 0 0 0 0 0 0 0 0 0 127 0" result="hardAlpha"/>
<feMorphology radius="3" operator="erode" in="SourceAlpha" result="effect2_dropShadow_193_152"/>
<feOffset dy="10"/>
<feGaussianBlur stdDeviation="7.5"/>
<feComposite in2="hardAlpha" operator="out"/>
<feColorMatrix type="matrix" values="0 0 0 0 0.54902 0 0 0 0 0.172549 0 0 0 0 0.54902 0 0 0 0.1 0"/>
<feBlend mode="normal" in2="effect1_dropShadow_193_152" result="effect2_dropShadow_193_152"/>
<feBlend mode="normal" in="SourceGraphic" in2="effect2_dropShadow_193_152" result="shape"/>
</filter>
</defs>
</svg>
