<svg width="36" height="36" viewBox="0 0 36 36" fill="none" xmlns="http://www.w3.org/2000/svg">
<rect width="36" height="36" rx="18" fill="#DBEB85"/>
<path d="M14.6665 23L17.9998 20.4583L21.3332 23L20.0832 18.875L23.4165 16.5H19.3332L17.9998 12.1667L16.6665 16.5H12.5832L15.9165 18.875L14.6665 23V23M17.9998 26.3333C16.8471 26.3333 15.7637 26.1146 14.7498 25.6771C13.7359 25.2396 12.854 24.6458 12.104 23.8958C11.354 23.1458 10.7603 22.2639 10.3228 21.25C9.88525 20.2361 9.6665 19.1528 9.6665 18C9.6665 16.8472 9.88525 15.7639 10.3228 14.75C10.7603 13.7361 11.354 12.8542 12.104 12.1042C12.854 11.3542 13.7359 10.7604 14.7498 10.3229C15.7637 9.88542 16.8471 9.66667 17.9998 9.66667C19.1526 9.66667 20.2359 9.88542 21.2498 10.3229C22.2637 10.7604 23.1457 11.3542 23.8957 12.1042C24.6457 12.8542 25.2394 13.7361 25.6769 14.75C26.1144 15.7639 26.3332 16.8472 26.3332 18C26.3332 19.1528 26.1144 20.2361 25.6769 21.25C25.2394 22.2639 24.6457 23.1458 23.8957 23.8958C23.1457 24.6458 22.2637 25.2396 21.2498 25.6771C20.2359 26.1146 19.1526 26.3333 17.9998 26.3333V26.3333" fill="#707D1C"/>
</svg>
