<svg width="44" height="44" viewBox="0 0 44 44" fill="none" xmlns="http://www.w3.org/2000/svg">
<rect width="44" height="44" rx="22" fill="#700B72" fill-opacity="0.05"/>
<path d="M22 30.25C19.7083 30.25 17.7604 29.4479 16.1562 27.8438C14.5521 26.2396 13.75 24.2917 13.75 22C13.75 19.7083 14.5521 17.7604 16.1562 16.1562C17.7604 14.5521 19.7083 13.75 22 13.75C22.2139 13.75 22.424 13.7576 22.6302 13.7729C22.8365 13.7882 23.0389 13.8111 23.2375 13.8417C22.6111 14.2847 22.1108 14.8615 21.7365 15.5719C21.3622 16.2823 21.175 17.05 21.175 17.875C21.175 19.25 21.6562 20.4187 22.6187 21.3812C23.5812 22.3437 24.75 22.825 26.125 22.825C26.9653 22.825 27.7368 22.6378 28.4396 22.2635C29.1424 21.8892 29.7153 21.3889 30.1583 20.7625C30.1889 20.9611 30.2118 21.1635 30.2271 21.3698C30.2424 21.576 30.25 21.7861 30.25 22C30.25 24.2917 29.4479 26.2396 27.8438 27.8438C26.2396 29.4479 24.2917 30.25 22 30.25V30.25M22 28.4167C23.3444 28.4167 24.5514 28.0462 25.6208 27.3052C26.6903 26.5642 27.4694 25.5979 27.9583 24.4062C27.6528 24.4826 27.3472 24.5438 27.0417 24.5896C26.7361 24.6354 26.4306 24.6583 26.125 24.6583C24.2458 24.6583 22.6455 23.9976 21.324 22.676C20.0024 21.3545 19.3417 19.7542 19.3417 17.875C19.3417 17.5694 19.3646 17.2639 19.4104 16.9583C19.4562 16.6528 19.5174 16.3472 19.5938 16.0417C18.4021 16.5306 17.4358 17.3097 16.6948 18.3792C15.9538 19.4486 15.5833 20.6556 15.5833 22C15.5833 23.7722 16.2097 25.2847 17.4625 26.5375C18.7153 27.7903 20.2278 28.4167 22 28.4167V28.4167M21.7708 22.2292V22.2292V22.2292V22.2292V22.2292V22.2292V22.2292V22.2292V22.2292V22.2292V22.2292V22.2292V22.2292V22.2292" fill="#700B72"/>
</svg>
