<svg width="36" height="36" viewBox="0 0 36 36" fill="none" xmlns="http://www.w3.org/2000/svg">
<rect width="36" height="36" rx="18" fill="#E9E7EB"/>
<path d="M18.0002 25.5L12.1668 22.3333V17.3333L8.8335 15.5L18.0002 10.5L27.1668 15.5V22.1667H25.5002V16.4167L23.8335 17.3333V22.3333L18.0002 25.5V25.5M18.0002 18.5833L23.7085 15.5L18.0002 12.4167L12.2918 15.5L18.0002 18.5833V18.5833M18.0002 23.6042L22.1668 21.3542V18.2083L18.0002 20.5L13.8335 18.2083V21.3542L18.0002 23.6042V23.6042M18.0002 18.5833V18.5833V18.5833V18.5833V18.5833V18.5833M18.0002 20.4583V20.4583V20.4583V20.4583V20.4583V20.4583V20.4583V20.4583V20.4583V20.4583M18.0002 20.4583V20.4583V20.4583V20.4583V20.4583V20.4583V20.4583V20.4583V20.4583V20.4583" fill="#51424E"/>
</svg>
